<svg xmlns="http://www.w3.org/2000/svg" width="16" height="16" version="1.0" viewBox="0 0 625 625"><path d="M296 3A305 305 0 0 0 12 349c12 81 50 150 113 201a304 304 0 0 0 488-309A307 307 0 0 0 296 3m62 8a302 302 0 0 1 253 343h-30l-30-1-1-7c0-7 0-8-4-11l-4-4-13 1-13 1-1-2c0-3-11-17-15-19-5-3-9-6-9-8 0-3-3-10-7-15-5-5-14-10-22-11h-6v-35l1-35-19-23-11 11c-6 6-10 12-9 12v20l-1 3c0 3-1 4-4 1l-2-4c0-3-1-4-3-6-5-3-5-3-5 1 0 3 0 3-2 2l-2-4c0-3-1-4-3-6-4-3-5-2-5 1s0 3-2 2l-2-5c0-3 0-4-3-5l-4-2v3c0 2 0 2-2 1-1 0-2-1-2-3 0-3-1-4-3-6-5-3-5-3-5 1 0 3-2 2-3-2 0-3-1-4-3-5-4-3-5-2-5 1 0 2 0 2-2 1l-2-4c0-3-1-4-3-5-4-2-4-2-4 1 0 1 0 2-1 1-1 0-2-1-2-3 0-3-1-4-3-5-4-2-4-2-4 0s0 2-2 1c-1 0-2-1-2-3s-1-3-3-5c-5-3-5-7 0-15l4-6v-24l-3-2c-2 0-8-6-14-11l-10-10-11 10-14 12-3 1v23l4 7 4 9c0 1-1 3-3 3-3 2-4 2-4 5s-1 4-2 4c-2 1-3 1-3-1 0-3-1-3-4-2-2 1-3 2-3 5l-2 4c-2 1-2 1-2-2s-1-4-4-2c-2 1-3 2-3 5l-2 4c-2 1-2 1-2-2s-1-4-4-2c-2 1-3 2-3 5l-2 4c-3 2-3 1-3-2s0-3-4-2c-3 2-4 2-4 5s0 4-2 5c-3 1-3 1-3-2s-1-4-5-1c-2 1-3 2-3 5v3l-2 1c-2 0-2-1-2-5 0-9-4-16-13-21l-10-1c-9 1-14 4-18 12l-3 5v28c0 33 1 29-12 37-8 6-9 7-15 20-4 10-7 13-14 18l-7 10c-3 6-5 8-11 11-8 6-10 8-14 15-2 6-5 13-6 23l-2 8c0 2 0 2-26 1l-35-1h-8l-1-6A304 304 0 0 1 292 9a510 510 0 0 1 66 2m-43 107 9 8-4-1h-27l-5 1 9-8 9-9 9 9m-7 9 3 2h3l2-2 1 2c0 1 5 3 6 1 0-2 3-1 3 1v2l2 1 2-1 1-2 1 10c0 9 0 10-2 9a86 86 0 0 0-49 1c-2 0-2-1-2-9 0-9 1-13 3-10 1 2 5 0 5-2l2-2 1 1c0 1 1 2 3 1l2-2 2-1 1 1 3 1q3 0 3-2c0-1 3-2 4 0m17 23 6 3-4 7c-2 3-4 5-5 4l-9-1c-6-1-14-1-24 2-3 0-3 0-6-6l-3-6 2-1c7-4 31-5 43-2m-7 15 5 1v33l-6 1c-6 1-22 1-27-1l-3-1v-31l3-1 6-1h22m-32 20v12l-4 2-66 29-1-9v-8l3-1c3-1 3-2 3-5v-4l2-1c2 0 2 1 2 3 0 4 0 4 5 2 3-2 3-2 3-6l2-4c2-1 3 0 3 2 0 3 1 4 5 1 3-1 3-2 3-4v-4l2-1c2 0 2 1 2 3 0 4 0 4 4 2 3-2 3-3 3-5v-4l2-1c2 0 2 1 2 3 0 3 0 3 2 3l3-2c1 0 2-1 2-3 0-4 2-6 4-6l1 3v3l4-2c4-1 4-2 4-5s2-5 4-5l1 12m42-9 2 4c0 2 1 4 3 5l4 2v-2c0-3 0-3 2-2l2 4c0 2 1 3 3 5l4 2v-2c0-3 0-3 2-2 1 0 2 1 2 4 0 2 1 3 3 5 4 2 4 1 4-1 1-3 1-3 3-1l2 4c0 2 1 3 3 4 3 3 3 2 3 0 0-3 0-3 2-2 1 0 2 1 2 4 0 2 1 3 3 5 4 3 4 3 4 0l1-3c3 0 4 2 4 6 0 2 1 3 3 5 4 2 4 2 4-2 0-3 0-3 2-2 1 1 2 2 2 5 0 2 1 3 3 5 4 3 4 3 4 0s1-4 4-2c2 1 2 2 2 5s0 4 4 6l4 2v-7l3 2 3 1-3 2-2 6c0 4-1 7-3 7l-1-3c0-3 0-3-2-2l-3 4-2 2-42-25-41-25v-12l1-12 2 1m-127 9c5 2 9 6 11 10s2 7 2 20c0 16 0 18-6 23-3 3-9 6-12 6l-5-2-2-1-1 2-1-3c0-2-1-5-3-7l-4-4v4c0 3 0 3-1 2l-2-6c0-4-1-5-2-7-3-2-3-3-3-10 0-15 3-22 12-26 6-3 11-4 17-1m253 21-7-2-7-2-1-7v-7l7 9c5 4 8 8 8 9m-163-5c6 2 23 2 29 0 4-1 4-1 14 5l9 6-8 4c-8 2-9 2-26 2-16 0-18 0-26-2l-14-5-4-3 10-4 11-5 5 2m147 37v35l-6-4-6-5v-31l-3-2-3-2v-22l7-1 9-2c2 0 2 2 2 34m11-32 5 1v36c0 34 0 35-2 34l-7-2h-6v-71h2l8 2m-180 6c22 11 54 11 75 2a493 493 0 0 1 65 39l-2 3c-1 1-1 1-2-2 0-4-1-4-4 0-2 2-3 3-3 6l-2 6c-1 1-1 1-2-2v-4l-4 3c-4 3-4 4-4 7 0 7-4 10-4 4v-3l-4 2c-2 3-3 4-3 7l-1 6c-2 1-2 1-2-2 0-4-1-5-3-3-1 1-3-1-11-8l-10-10-11 10c-8 8-10 10-8 10s2 1 2 4 0 3-4 3-4 0-4 4c0 3 0 3-3 3s-4 0-4-3c0-4 0-4-4-4s-5 0-5 4c0 3 0 3-3 3s-3 0-3-3c0-4 0-4-4-4s-5 0-5 4c0 3 0 3-3 3s-3 0-3-3c0-4 0-4-4-4s-5 0-5 4c0 3 0 3-3 3s-3 0-3-3c0-4 0-4-4-4s-4 0-4-3c0-2 1-3 2-3l-10-10-10-10-9 9-9 9-4-4-3-4v4l-1 5c-1 0-3-4-3-9s0-6-4-9l-4-4v4c0 4 0 4-2 3l-1-6c0-5 0-6-4-9l-3-3v4c0 4 0 4-2 2l-1-6v-4l5-1c4-2 7-3 10-6l4-7 19-10 24-10 6-3 6 3m-94 13 1 6c0 2 1 5 3 7l2 3v-4c0-4 0-4 2-2l2 6c0 3 1 5 3 7l3 4v-4c0-4 0-4 2-3l1 6c0 4 1 6 3 8l3 4v-9l2 2 2 7c0 4 1 5 3 8l3 4v-10l3 3 2 8c0 4 1 6 3 8l3 4v-10l3 2c2 2 2 2 0 4v1c2 0 2 2 2 19s0 19-1 18l-27-35-26-33v-16l1-15 2 2m226 63a321 321 0 0 1-26 25l-5 6-4 4v-18c0-17 0-19 2-21 2-1 2-1 2 3v4l3-3c2-2 3-3 3-6 0-4 2-8 4-8l1 4v3l3-3c3-2 4-3 4-6 0-4 2-8 4-8l1 3v3l3-2c2-2 3-3 3-6 0-4 2-8 4-8l1 4v3l3-2c2-3 3-4 3-7 0-4 1-7 3-7l1 3c0 4 1 4 4 1l2-6 2-6c1-1 1-1 2 14v14zm-217-16 11 14-5 4c-6 3-10 7-10 8l3-2 5-3 5-2 4-2 9 11c8 11 8 11 6 12-3 1-6 4-10 8l-2 4 3-3c2-3 11-8 12-8l10 13-21 1h-22v73l-4 2c-5 1-9 5-12 9l-3 4c-2 0-6 4-10 8l-8 8v-17c0-16 0-17 2-18 2-2 2-3 1-5l-1-7-1-4-6-2-8-2c-1-2 4-10 9-15l3-4c-4 1-9 6-12 12l-4 6-9-2-18-2h-9v-6c1-7 5-14 9-19 5-4 5-5-1-1l-4 3 2-4c1-5 6-13 7-13l3-3c5-4 14-9 17-9l4-1h-4c-4 1-4 1-3-2 2-6 6-10 12-15s6-5 14-21c3-8 7-12 14-16l7-5 3-2 12 15m173 2 8 8-6-1c-11-1-10 0-10-8v-7l8 8m77-2c4 4 10 5 25 7l13 3c6 3 14 11 16 17 2 5 1 6-2 4l-3-1 3 3c3 1 15 9 16 11 8 8 12 14 12 17l-12 2-5 1v-4c0-2-1-5-5-10-3-3-5-8-6-10s-2-3-4-3c-3-1-4-1-3-3l-1-9c-1-6-1-7-3-6v2c2 2 1 5-1 5v1c2 1 2 3 3 6v5h-4c-3 0-4 0-4-2l1-2c2 0 3-2 2-7-2-6-4-7-6 0-2 6-2 7 1 7l1 2c0 2-1 2-4 2s-3 0-3-4l1-5c2 0 2 0 0-2l-1-3-1-3-1 9c0 7 0 9-2 9l-3 5c0 3-3 8-5 11-4 6-5 8-5 11s0 4-2 4l-6 1h-5v-12l1-16 1-3-15-3-14-3-11 2-11 2 8-9 9-8 7-1 11-1h3l-10-1h-8l9-9c4-5 9-9 10-9l5 2c5 3 5 2 0-1l-4-3 2-2c1-2 2-2 4-1l6 5m-180 3 8 7h-8l-8-1-1-6 1-7 8 7m94 29v22h-15v-21l1-22 8-1h6zm12-21h5v42l-4 1h-8l-3-1-1-21v-22h3l8 1m-116 22v21h-16v-42h6l7-1h3zm13-21h5v42h-17v-43h4l8 1m13 12c0 3 0 3 4 3s4 0 4-3c0-4 0-4 4-4s3 0 3 4c0 3 0 3 4 3s4 0 4-3c0-4 0-4 3-4s3 0 3 4c0 3 0 3 5 3s4 0 4-3c0-4 0-4 4-4s3 0 3 4c0 3 0 3 5 3s4 0 4-3c0-4 0-4 4-4h3v34h-2l-4-2-5-3c-3-1-3-2-3-7s0-5 3-5l2-1-2-1c-3 0-3 0-3-3l-1-3q-2 0-2 3c1 2 0 2-2 2-3 1-4 3 0 3 2 0 3 1 3 5v6l-4 1-6 4-21 1h-21v-34h4c3 0 3 0 3 3m148 15 12 3c2 0 1 3 0 4l-23-4-1-5 12 2m65 3c0 3 0 4-2 4l-12 1h-12v-3l1-1c1-1 2-2 12-3l12-1 1 3m8 10c4 5 5 7 5 9 0 3 0 4-2 4-2 1-2 0-3-3l-3-10-3-8-1-4 1 3 6 9m-86 7-1 16-21 2-3 1v-30l10-2a181 181 0 0 0 13-2c2 0 2 1 2 15m9-14 11 2 5 1v24l-23 2v-30l7 1m-37 2 1 9c0 8 0 8-2 7l-3-4-3-3-3-2 9-9 1 2m76 10c-3 6-4 10-2 12 1 1 1 1-2 1-4 0-4 0-4-3l4-9 5-9c1-2 2-2 2 0l-3 8m33-6c5 10 5 10 4 13s-4 3-5 0c-1-2-1-2-1 1 0 1-1 2-19 3l-7 1 1-3-2-3v4c-1 2-2 2-4 0-3-2-3-3 1-9l3-7c0-2 1-2 6-2l10-1c10-1 10-1 13 3m-162 4c5 5 4 6-8 6s-14-1-9-6c4-6 12-6 17 0m-56 5c0 4 0 4-3 4s-4 0-4-4 0-4 4-4 3 0 3 4m10 0c0 4 0 4-3 4s-4-1-4-3c0-4 1-5 4-5s3 0 3 4m12 0v4h-8v-8h8zm13-2-1 4c0 2-1 2-4 2h-4v-8h5c4 0 4 0 4 2m29 2-1 4-2-1-1-4c0-3 0-3 2-3s2 1 2 4m11 0c0 3-1 3-4 3-3 1-4 0-4-2 0-4 1-5 4-5 4 0 4 0 4 4m2 1c-1 1-1 1-1-2 0-2 0-3 1-2v4m9-1v4h-8v-8h8zm18 1 6 4v7c0 6 0 6-3 6s-4 1-6 5c-3 4-3 4-5 0l-5-5c-3-2-3-3-3-11s0-9 2-10c5-2 8-1 14 4m-180-1c0 3-1 4-5 4h-4v-7h4c4 1 5 1 5 4m11-1c0 3-1 4-4 4-4 0-4 0-4-3s0-4 4-4 4 0 4 3m11 0c0 3-1 4-4 4-4 0-4 0-4-3s0-4 4-4 4 0 4 3m2 2c-1 1-1 0-1-2l1-2v4m8-1c0 3 0 3-3 3s-4 0-4-3 0-4 4-4 3 0 3 4m3 1c-1 1-1 0-1-2l1-2v4m9-1c0 3 0 3-4 3s-4 0-4-3 0-4 4-4 4 0 4 4m2 1c-1 1-1 0-1-2l1-2v4m9-1c0 3 0 3-3 3s-4 0-4-3 0-4 4-4 3 0 3 4m2 1c0 2-1 1-1-1 0-3 0-4 1-3v4m9-2c0 3-1 4-4 4-4 0-4 0-4-3s0-4 4-4 4 0 4 3m2 2c-1 1-1 0-1-2l1-2v4m10 0c-1 1-1 0-1-2l1-2v4m22 0c-1 1-1 0-1-2l1-2v4m42 0c-1 1-1 0-1-2l1-2v4m-9 1c2 0 2 2 2 10v9l-4-1h-15l-5 1v-9c0-9 0-10 5-11 4-1 14-1 17 1m220 3-176 20 1-3 2-3 110-12 35-4 24-3 3 2 1 3m-243 3v4h-8l-9 1 2 3c2 3 3 3 9 3 5 0 6 0 6 2l-1 2-6 4-6 3-1 1-4 7c-3 4-4 5-6 4-6-1-10 7-5 10 2 2 3 5 1 5s-2 1-2 5c-1 5-1 5-4 6h-3v-38h-18v19l-1 18-3 1h-3v-11h-9v5l-1 5-4 1h-4v-38h-18v38h-3c-2 0-2 0-2-5v-6h-10v6c0 5 0 5-3 5h-3v-64h119zm52 19v23l-3-5c-5-10-12-18-19-21l-3-3c0-2 1-2 4-2s4 0 6-3l2-3-6-1h-6v-8h25zm173-14c5 2 9 7 10 12 1 3 1 3-5 5-6 3-7 3-7 6l-2 6c-1 3 0 6 3 8l1 2c0 1-4 0-15-4l-13-7-1-14v-15h4l7-1c8-1 13-1 18 2m-46 5c6 4 10 10 11 16v4c-3 0-5-2-5-5-1-5-6-11-11-12-10-3-21 7-18 18l3 6 1 2-12 6-1-8c0-9 0-9-3-10s-3-1-3 2-2 2-3-1c0-5-6-7-6-2 0 3-2 2-3-1 0-4-4-5-9-4-4 0-4 0-4 4 0 3 0 3-2 3-3 0-3 0-3-3s0-3-3-2-4 1-4 4-1 4-3 4-2 0-2-3c0-2 0-3-2-3l-1-5v-4l35-5 39-4 9 3m-120 5c3 3 3 5 3 12v7l-4-3-4-3v-10c0-6 0-9 1-8l4 5m-42 1c4 4 11 20 13 33l1 3h-35l1-3c3-16 12-36 16-36l4 3m-17 3c-7 6-13 16-17 27-3 9-3 10-6 11l-5 1c-1-1 3-12 7-20a50 50 0 0 1 26-24l-5 5m29 2a87 87 0 0 1 17 34l-7-1-7-1v-5c-1-7-6-19-10-27-3-6-4-7-2-6 2 0 5 3 9 6m150-4 4 7v4l-10 5-11 5c-2 0-5-6-5-10 0-8 5-14 13-14 4 0 6 0 8 3m-170-1-4 7c-4 8-7 18-9 25v5l-6 1-7 1 8-21c3-6 15-19 17-19l1 1m22 2c7 4 13 11 17 19 4 7 8 19 8 21l-4-1c-3-1-4-3-5-9-4-11-9-20-16-27l-5-6 5 3m270-2h9v5h-21l-29-1c-7 0-7 0-7-3v-2h20l28 1m-49 3a147 147 0 0 1-25 12l-2-2c0-3 1-3 12-8l14-5 1 3m-171 17v18h12v10c0 11 0 11-2 11h-2l2 4c2 2 2 5 2 11v8h-28v-79h4l8-1h4zm228-13v3l-1 4h-26c-25 0-26 0-28-2l-1-3c2-4 2-4 29-3l27 1m-186 24v25l-14 1-14 1-1-24c0-23 0-23 3-23 2 0 2 0 2 3s0 3 2 3l4-1 1-3c0-3 1-4 2-4 2-1 3-1 3 2 0 2 1 3 2 3 4 0 5-1 5-5 0-3 0-3 3-3h2zm4-24c1 0 2 1 2 3s1 3 3 3c2 1 2 0 2-2 0-4 3-2 4 2l1 3 2 1c2 0 2 0 2-2 0-3 0-3 2-2 2 0 2 3 2 23v22h-4l-11-1-7-2-1-24 1-25 2 1m125 7-26 10c-2 0-4-3-2-5l14-7 13-5 1 3v4m-33 15-12-1a292 292 0 0 0-54 1l16-8 16-8 17 8 17 8m-411-12 1 3v2H67c-38 0-43 0-44-2l-1-3c0-2 1-2 43-2l44 2m444 26c-2 1-3 4-3 5 0 3-2 5-3 5l-1-2c0-2 0-2-3 1-2 1-3 3-3 5 0 3-2 6-3 6l-1-2-1-2c-2 0-6 6-6 9l-1-20 1-22 13-5 13-6v13c0 12 0 12-2 15m55-26c0 1-1 2-17 1h-18v22h-17v-25h26c24 0 26 0 26 2m-478 4 15 3v7l-17-4-17-4v-3c0-3 0-3 2-3l17 4m458 1c0 2 1 3 2 3v-3c-1-3 0-4 7-2 4 0 4 0 3 3s-2 3-6 3c-6 0-13 4-16 9l-3 4v-18l4 4c4 5 4 4 0-2l-3-4h5c6 0 6 0 7 3m19 2c-1 4-2 5-5 3-2-1-2-1 0-4l3-3c3 0 3 0 2 4m-497 0c2 1 3 4 2 7l-44 1-42-1-2-4v-4h42l44 1m20 5c14 3 18 5 18 7s-3 4-5 4a1048 1048 0 0 0-30-9l1-4v-2l16 4m389 1 8 1v36l-3 2c-2 2-3 3-3 5l-2 6-1-3v-2l-3 2c-2 2-3 3-3 5l-1 3-2-1-1-1-27 1-29 1-3 1v-10c0-8 0-10 2-13 3-3 3-4 0-4-2 0-2-1-2-13 0-16-1-14 13-16 17-2 40-2 57 0m-433 4h24v34H94v-30H55v30H38l-2-4-9-29-1-2h18l42 1m41 4 14 3c2 0 2 2 2 22l-1 18c0-3-1-4-3-6-5-3-5-2-5 2 0 3 0 3-2 2l-2-5c0-3 0-4-3-6l-4-2-1 21v20h-11v-37c0-34 0-36 2-36l14 3m188 4-1 4-5 1c-5 0-5 0-7-3l-1-5 7-1h7zm21-2c11 2 11 2 9 6l-1 4-6-2-10-1-8-1c-4 0-4 0-4-4v-4h5l15 2m-37 3 2 4-10 2-13 3-3-3-1-3c0-1 17-7 22-7l3 4m-232 4c2 6 2 6 0 6s-11-9-11-11l5-1c4 0 4 1 6 5m14-2c-2 8-1 7-6 8-4 0-4 0-5-3-4-8-4-8 5-8h7zm12-1c0 2-7 11-8 11-4 0-4-2-3-7l1-6h5c4 0 5 0 5 2m481 0c2 2 1 5-1 5l-9 1c-6 0-7-1-8-2-1-4 1-5 9-5l9 1m-220 1c3 1 3 1 2 6-1 3-1 3-5 2-5-2-5-2-4-6 1-3 2-4 7-2m201 16v15l-61 62-60 61v-43l4-3 3-3v8l4-4c4-3 4-4 4-8s1-5 3-6l2-2v8l4-3c2-3 3-4 3-8l2-6 3-2v7l4-3c2-3 3-4 3-8 0-3 1-4 2-5 2-1 2-1 2 3v3l3-3c2-2 3-3 3-7l2-6c2-1 3-1 3 2v3l3-3c2-2 3-3 3-6l2-5c2-2 2-2 2 2v3l3-2 2-6c0-3 1-4 3-6l2-2v6l3-2 2-5 2-5c2-2 2-2 2 1v3l2-2c2-1 3-4 3-6 0-5 3-7 3-2v2l2-2c2-2 3-3 3-5 0-3 2-7 4-7l1 3v2l3-3c2-2 3-3 3-6l2-5c2-1 2-1 2 1v3l3-2c2-2 3-3 3-5 0-3 2-7 4-7v16m-281-11 1 3h-95l1-3 1-3h90zm-213 2 3 3-3 3-4 5c-1 2-1 1-1-6l1-9 4 4m32 5v8l-2-2-3-5c-1-1-1-2 2-5l3-4v8m209 9v17l-10 2-13 3h-2v-33l5-2 12-2 8-2v17m12 0v17h-11l1-33 5-1h5zm25-15 5 1v34h-4l-10-2-11-1h-4v-34h9l15 2m234 19v19h-17v-18l1-19 8-1h8zm-222-16 4 1v17l-1 17-5-1-4-1v-17l1-17 5 1m-75 4v2h-96l-1-2v-3h97zm148 3c0 3 0 3-18 5-9 1-10 1-12-1l-1-2 29-4c2 0 2 1 2 2m17 0 10 2-1 2c-2 2-2 2-10 1-14-2-15-2-15-4s1-3 4-3l12 2m-165 3c0 2-2 2-44 2h-45v24l-1 24-1-5c0-3-1-4-3-6l-3-2v-19l1-19a847 847 0 0 1 96 1m148 33-1 10-14-12-14-11v-15l14-2 14-1 1 10v21m15-30 8 2v40l-1 43c-3 3-4 3-4-2v-3l-4 4-4 3v-16c0-16 0-17 2-18 2 0 2-1-4-5l-6-6-1-22v-21h3l11 1m-163 8v7h-4l-3 1 4 1c2 0 3 0 3 2l-4 2h-4l4 1h3l1 9c0 6 0 8-1 7l-5 4c-3 3-4 3-10 3h-6l-5-6-5-6 12-1h12v-10c0-10 0-10-3-14-6-6-17-5-21 2-2 3-2 5-2 12v9l-7 5-8 5v-14c0-13 0-15-2-17-6-8-18-7-23 2-1 3-2 3-7 3h-6v-15h87zm-150-3c2 1 3 2 3 5s0 4 3 5c4 2 4 2 4-1s0-4 3-2c1 1 2 2 2 5s1 4 2 5c3 3 4 2 4-2 0-3 0-3 2-2 1 1 2 2 2 5s0 4 3 6c4 3 4 3 4-2l1-3c2 0 3 3 3 6s0 4 3 6l3 2 1-4c0-4 0-4 2-3l2 6c0 3 0 4 2 5 4 3 4 2 4-2 0-3 0-3 3-2 1 1 2 2 2 5 0 5 0 5 6 8l1-3c0-4 0-5 3-3 1 1 2 2 2 5 0 4 0 5 3 7l4 2 1-4v-4l2 2c2 1 3 2 3 5 0 4 0 5 3 7l4 2v-4c0-4 0-5 4-2 1 1 2 2 2 6s0 4 4 6l4 3 1-4c0-4 1-5 4-2 1 1 2 2 2 6 0 3 0 4 3 6 5 3 5 3 5-2 0-3 1-4 5-1l3 2 1-9v-10h15l1 36v36l-145-91c-2-1-2-4-2-21l1-19 3 2m-71 3c0 2-1 3-8 3s-7 0-8-2l-1-4h8c8 0 9 1 9 3m54 0v3h-8c-9 0-11-1-10-4 1-2 3-2 10-2h8zm439 21-6 6-2-3-1-4 7-8 8-8v5c0 5 0 5-6 11m-494-3v12c-1 0-8-12-10-18l-3-6h13zm55 2-1 14H96l-1-14v-14h16zm91-8c0 2-1 2-6 2s-6 0-6-2 1-2 6-2 6 0 6 2m143 2c11 3 12 3 8 6l-4 3-10-2c-17-4-43-3-59 2-2 0-2 0-2-3 0-4 1-5 14-8 10-2 42-1 53 2m71 14 20 16-7 1h-7l-19-16-21-17c-1-1 0-1 6-1h7zm-25 5 25 21h-4c-5 0-5 0-26-18l-20-18-23 18c-21 17-22 18-27 18h-4l54-42 25 21m112-19c3 0 3 1 2 2l-2 3c0 1-2 2-18 2h-27l-8 1v-3l1-4c5-1 45-3 52-1m8 2h-1l2-2-1 2m-309 16c0 15 0 17-1 16-1 0-2-2-2-5 0-4 0-4-4-6l-3-3-1 4-1-9v-14h12zm382-14-4 8c-4 7-5 8-8 8-3 1-7 0-11-1l-8-1c-1 1 7 4 12 5l7 1-3 7-4 6-5-3c-5-2-7-3-18-2h-13l12-13 12-12h8c8 1 8 0 0-2l-5-2h14l14 1m-261 2 24 4-19 15-19 15h-14l-9-10c-8-10-8-11-8-15v-4l8-2 16-3 10-1 11 1m62 17c22 19 20 17 16 17-3 0-6-2-19-13-16-13-16-13-18-11l-16 13-13 11h-5l-6-1 21-16c17-14 21-17 22-16l18 15m104-14c7 0 8 0 7 2l-2 4-22 1h-22v-2l1-4a373 373 0 0 1 38-1m14 1c0 2-2 3-3 3l2-4 1 1m39 6-13 14-3-3-1-3 7-8 7-7 2 3 1 4m-160 15 14 11 1 13v12h-11v9h-8v-9h-11v9h-8v-9h-11v9h-9v-4l-1-5c-2 0-2-2-2-12v-13l15-12c11-10 15-13 16-12l16 13m102-13h3l-2 2-3 4c0 2-1 2-17 3h-16v-4c0-4 0-4 3-4a130 130 0 0 1 32-1m8 1-1 2c-2 2-2 2-2 0 0-3 2-4 3-2m-210 22h-10l3-19 8 9 8 10zm-163-14-2 4-27 1H63l-3-4-2-4 31-1h32zm14 4 7 4-2 3-3 4-16-10 2-4c2-4 1-5 12 3m392-2c1 3 1 3-6 11l-8 7-2-3-1-4 7-8 8-6 2 3m-272 3c0 5 0 6-3 8l-2 1 2 1c2 1 3 1 3 8l-1 8-4-2-3-2-1 4v4l-3-1c-3-2-3-2-3-7s0-5-8-9l-1 4c0 4 0 4-2 3-3-1-3-2-3-14v-12h29zm11-5-5 5-5 4v-10h5l5 1m210 3-2 4c0 2 0 2-7 2l-11 1h-5v-4l1-4 14-1c12 0 12 0 10 2m8-1c0 2-2 4-3 4l-1-3 2-2 2 1m-357 9c6 4 7 4 5 5-2 2-20 2-24 1l1 1c5 3 17 4 25 2l6-1 12 8 11 8-11 1c-9-1-9-1-6 1l14 2h11l19 12a343 343 0 0 1 17 12c-4-2-18-1-25 1-7 1-18 2-23 1l2 1c5 3 17 3 23 1 8-2 21-3 26-2l12 6 7 5-7 1c-8 2-20 3-24 1-5-2-3 0 2 2 5 3 16 3 27 1l7-2 12 7 11 8c0 2-15 2-22 0l2 2c4 2 6 2 12 2h99a1122 1122 0 0 0 101-3l-4-2 12-12 12-12 12-1h17l5 1-5-2c-4-2-6-2-15-3-8 0-10 0-9-1l11-12 11-10 8-1h13c7 1 7 1 2-1l-12-2h-7l13-13 12-14 16-1h19c5 2 6 3 3 6-2 3-4 3-15 5-9 2-13 2-19 1h-9l5 2c4 2 6 2 16 2l14-2c2 0 2 0-2 5l-11 13-6 8-12 1c-12 2-19 3-25 1-5-2-5 0 1 2 4 2 6 2 17 2l13-1-4 5a94 94 0 0 1-26 20c-6 2-22 3-27 1-4-2-3 0 2 2 3 2 7 2 13 2h8l-5 4c-8 6-24 16-34 21-8 4-10 5-15 5l-10-1-5-1c-1 1 8 5 11 5 7 0-28 13-50 19-26 6-39 7-70 7l-39-1a300 300 0 0 1-120-44c4 1 15 0 24-1l15-2 6-1c-2-2-18-2-24-1-19 4-25 3-35-4l-7-5 5-2 26-3 5 1-3-2c-7-2-14-2-26 0l-12 2-7-5c-7-7-10-9-9-10h10c8-1 9-1 6-2l-13-1h-9l-10-11-10-11c1-1 17-4 24-4h11c-3-3-19-4-30-2l-7 2-9-9c-8-11-8-11 4-11 6 0 6 0 4-1l-10-2c-8-1-8-1-10-4l-2-3h54zm308 12v17h-9v4l-1 5-1-22v-21h10zm-282-8 6 4-4 7-16-10 2-4c2-3 2-4 12 3m314-4-2 2-3 4-4 1h-6l-1-3v-4h6l8-1 2 1m7 0-4 5v-5h3m33 17c-9 10-8 10-11 5l-2-3 8-8 8-8 1 4 2 3zm-216 23v35h14l14 1-1 6-1 4h-47l2-5c2-4 2-6 2-40l1-36 8-1h8zm46-23v12h-3c-4 0-4 0-4 5v4h-8v-4c0-5 0-5-2-5h-3v-25h20zm79 0v12h-9v5c0 4 0 4-3 4h-4v-34h16zm47-6c0 2-2 6-4 6l-1-4v-3l-2 2c-3 3-4 3-4 0s1-3 5-3l5-1 1 3m-291 4 7 5-5 7-4-2-8-5-4-4 2-4c1-2 3-3 3-2l9 5m323 9 2 4-9 8-8 8-2-4-2-4 8-8 9-8 2 4m-305 2 9 7-2 4-3 3-9-6-9-6 5-7 9 5m110 9v4h12v-8h8v8h11v-8h9v8h11v-8h8v8h11v-8h9v8h10v-8h9v8h10v-8h8v8h12v-8h8v43H290v-43h4c3 0 3 0 3 4m-88 5 10 6-3 4-3 4-20-13 5-7 11 6m265 2 2 4-10 9-9 10-2-4-2-4 9-10 10-9 2 4m-230 21-5 7-24-15 2-4 3-4 12 8 12 8m210-1 2 4-9 10-10 8-2-4-1-5 9-8 9-9 2 4m-196 9 11 7-5 8-23-15c0-2 4-7 5-7l12 7m90 8c-2 8 0 7-17 7s-16 0-14-7l1-4h30zm29 1v6h-29l1-5 1-5 14-1h13zm30 0 1 5-14 1c-14 0-15 0-15-2v-8l14-1h13zm26-3 1 5 1 4h-12l-13-1-2-5v-5h12c10 0 12 0 13 2"/><path d="m317 14-6 1 2 1c2 0 3 1 3 15 1 16-1 20-11 20l-7-2-3-3V31c0-14 0-14 3-15l2-1-3-1-8 1-4 1 2 1c2 0 3 2 3 18l2 15c3 5 15 7 21 3s6-6 6-22c-1-14 0-15 3-16s0-2-5-1m11 1 2 1c3 0 3 2 1 14-2 19-2 21-4 22-3 1-1 2 8 3h14c9-3 14-10 14-21 0-13-5-17-22-19h-13m22 5c5 2 7 6 8 12 0 6-2 14-6 18-3 2-4 2-10 2h-8l4-31c0-3 0-3 4-3l8 2m-83-2-13 2c-3 0-3 0-3 4l1 5 1 1 1-3c0-4 0-4 7-5 2-1 2 0 5 15 3 17 3 20 0 20l-2 1h9l6-2-2-1c-3 1-4-1-6-17-3-18-3-18 2-18 4-1 6 0 6 3l1 2v-7c0-2-1-2-13 0m104 2 1 1 2 3-6 32-3 1c-4 0-2 2 5 3 7 2 9 1 5-1l-2-2 3-15c4-18 4-19 7-18l2-1-6-2-7-2-1 1m-140 6c-6 3-8 10-6 17 3 5 6 6 14 4 7-1 10 0 11 5 2 6-4 11-11 11-4 0-4 0-5-3-2-4-3-4-3 1 1 5 2 5 7 5 9 0 16-6 16-15 0-4 0-6-3-8-2-2-2-2-9-1-11 1-12 0-14-6 0-2 0-3 3-6 2-2 4-3 7-3s4 0 5 3c2 3 3 3 3 0l-1-4c0-3-9-3-14 0"/><path d="M391 31c-10 7-12 25-3 33s25 5 31-7c8-15-1-29-18-29-5 0-6 0-10 3m18 1c5 3 7 8 7 15-2 15-12 23-22 17-6-4-8-15-3-25 4-8 10-11 18-7m22 7 2 2c1 1 1 2-5 14-8 17-9 18-12 18-4-1-2 1 5 4l7 3v-2c-4-1-4-2 3-17l8-15c2-2 7 1 9 4 3 6-4 13-10 11-5-1-5-1-4 3l2 13c1 8 1 9 4 10 4 1 5 1 3-2l-2-11-2-10h4c6 0 11-4 11-9s-2-7-13-12l-10-4m-246 6c-11 3-16 12-11 21 3 4 6 5 14 2s11-2 13 3c1 4 0 7-5 11-4 3-8 3-11-1l-2-2 1 2v7l-18-11-17-11c-1 1 1 10 3 21l5 19-2 3-3 3-12-13c-11-14-11-14-6-18 3-1 3-1 5 1 4 3 3 0-2-7l-23 20 7 6-1-3c-2-2-2-3 2-6 2-2 3-3 4-2l20 24v4l-1 2 8-6 9-8c4-2 4-3 1-3-3 1-4 0-5-7-1-2-1-3 5-7l6-4 4 3c4 3 5 4 3 6l-1 2 7-4 9-5c11-3 17-14 12-22-3-5-6-6-13-3-8 3-10 3-13 0-3-6 0-13 8-14 3 0 4 0 5 2l2 2c1 0 1-1-1-4-1-4-2-4-6-3m-25 34 5 4c1 1-1 2-3 4l-6 3-4-16 8 5m50-28c-1 2 0 5 2 5l2-2c1-1 0-4-2-4l-2 1m254 5 2 2c2 1 1 2-8 16-8 10-9 13-7 17 0 4 7 10 12 11 6 2 10-1 16-9l8-11c3-4 4-5 6-4l3-1-11-7 1 2c3 2 3 3-4 12-6 10-10 15-13 15-3 1-8-1-11-5-4-5-4-7 6-20 7-11 9-12 11-10h1l-4-4c-6-5-8-6-8-4m37 25v2c2 2 0 4-11 16-10 10-12 11-13 10l-3-1c-1 1 7 9 9 9v-2c-2-2-2-2 1-6l10-11 7-7-1 4-11 30 17-7 16-6-10 11c-9 9-10 10-12 9l-3-1c0 1 10 11 11 10v-2c-2-2-2-3 10-14l12-13 3 1 2 1-4-4c-3-4-4-4-7-2-13 5-26 11-27 10l6-16 5-15-3-4-4-2m-395 23-5 6 3-1c1-2 2-1 14 10 11 11 13 14 11 15l-1 2 6-5c5-5 6-7 2-5-2 1-3 1-14-11-11-11-12-12-11-14 3-5 0-4-5 3m-12 13c-10 7-10 18-2 23 5 3 7 2 13-3 7-5 8-6 12-3 5 3 4 10-1 15-3 3-5 3-8 1l-3-1 6 7c2 0 9-7 11-10 3-6 1-15-5-18-4-3-6-2-13 3-3 3-6 5-8 5-3 0-7-4-7-7s3-7 6-9c2-2 3-2 5 0 3 2 4 0 0-3l-3-3zm430 19c-1 3 0 4 3 4 1 0 2-1 2-3 0-3-4-4-5-1m27 2c0 2 1 2-16 13-7 4-13 8-14 7-2-1-1 1 3 7 4 8 7 10 14 10 4 0 6 0 8-3 3-3 3-4 3-7s-1-4 1-3c4 1 8 1 10-1 4-4 4-7-3-17-5-9-8-11-6-6m6 11c2 3 2 4 1 6-2 5-9 5-13 0l-2-3 5-4 7-3 2 4m-14 8c3 6 2 10-3 13-5 2-8 1-11-2l-3-4c1-1 13-10 15-10l2 3M74 144l-8 11c-6 9-7 12-3 9 1-2 2-1 16 7 12 9 13 10 13 12l1 3c1 0 8-12 7-13l-1 1-3 2c-2 0-28-18-28-19l4-7c2-2 7-1 9 1 3 2 4 6 2 10l-1 4 13-1c12 0 13 0 14-3 2-3 1-5 0-3l-12 1-10 1v-5c0-5-2-9-6-11h-7m495 23c0 2 0 3-7 6l-15 8c-8 3-8 3-10 1-3-3-2 0 1 6 3 8 4 8 4 4-1-2 0-3 13-10l16-7c2 0 5 5 5 8 0 4-4 7-9 7-2 0-4-1-6-4l-3-3-6 11-6 11 5 13 5 13 10 3 9 3-7 7c-4 3-7 7-6 7a216 216 0 0 1 6 34l1-1c0-4 2-4 7-2l6 2v13h-5l-7-1c-2-4-2 2 0 19v5h5l5-1-3-1c-4 0-5-2-5-9l-1-6 8-1h8l1 6c-1 4-1 5-3 5l-2 1 4 1 6-1 3-1-2-1c-3 0-3-1-3-5l-1-6h8l7-1 1 7v7l-3 1c-4 0-3 2 2 2h4l-1-14c0-16-1-21-2-16 0 2-1 3-2 3a384 384 0 0 1-36-17v-4l32-6 3 2 1 2 1-1-2-8c0-6-2-9-2-4 0 3-1 4-19 6-13 3-15 3-16 1-3-3-1-6 7-14 4-5 8-8 9-8 3 0 16 6 17 8 2 2 3 0 2-3-1-2-3-3-9-5l-8-3 6-6 6-6-2-4-1-4h-1l-1 3-6 9-7 6-10-3c-7-2-10-4-11-6-4-5-4-4 25-15 5-2 7-2 7 1l1 1c1 0 1-1-1-8-3-6-5-8-4-3 0 2-2 2-16 8l-16 5c-1 0-2-1-2-3-1-2 0-4 4-12l5-9 4 3c5 3 9 3 13-1l3-5c0-3-9-23-10-23l-1 3m27 123 10 5-21 2-1-6 1-5 11 4M56 173l-6 13c-5 11-6 14-3 11l3-2 16 7c11 6 14 7 14 9v2c0 1 10-18 11-23 1-1 0-2-3-4-5-2-7-2-3 1 3 3 3 3 2 7-3 6-4 9-6 9l-13-7 2-5c2-4 2-4 5-4 5 1 4 0-3-3-5-3-8-3-5-1l2 3-5 9c-2 0-12-6-12-7l4-9c2-3 2-3 4-2 4 2 4-1 0-3l-4-1m-13 28c-3 6-4 10-3 11l2-2c1-4 2-3 19 11l7 6H37v-5c-2 1-5 9-5 13 0 2 0 2 2 0 1-2 3-2 21-3 19-1 24-2 20-4a236 236 0 0 1-32-27m-12 41-2 6v6l1-1c0-3 2-3 15 0 19 3 20 4 20 7 0 4 2 2 3-5v-6c-1 3-4 3-21-1-14-4-14-4-15-7l-1-2zm-5 20-1 6c0 4 1 4 3 0 1-2 1-2 5-2a765 765 0 0 0 24 4l-17 10c-17 10-17 10-18 14l1 5c1 1 1 1 1-1l1-3 34 5 1 3v1l2-10c1-3-1-3-2 0 0 1-1 2-3 2l-27-3 16-10c18-10 20-12 20-14s-1-2-4-2l-33-5-1-2v-2l-2 4m-4 50 1 6 1-2 2-3h29c4 1 6 13 2 17-2 2-3 3-15 3l-15 1-2-3-1-2-1 8 1 7 1-2c0-2 1-3 7-3l15-1c10 0 12-1 15-7 3-7 0-16-5-20-3-2-5-2-17-2-14 1-16 1-16-2l-1-2-1 7m273-142c-2 0-1 12 1 12l1-6v-7l-2 1m9 5c0 5 0 6 2 6s1-1 1-6 0-6-1-6-2 1-2 6m10 1 1 6 1-6-1-7-1 7m-20 16c0 3 1 4 2 4 1 1 1 0 1-3l-1-4c-1 0-2 1-2 3m10 2c0 2 1 3 2 3l1-3-1-4c-1 0-2 1-2 4m-126 13 2 5 1-5-2-5-1 5m0 12c0 4 0 5 2 5s1-1 1-4l-1-5c-2-1-2 0-2 4m264 2c0 3 0 4 2 4s1-1 1-4 0-4-1-4-2 1-2 4m6 1 2 4c1 1 1 0 1-3l-1-5c-1 0-2 1-2 4m-270 59c-6 1-7 1-17 11-7 8-11 14-12 18l1-2 7-9 10-9c5-5 10-8 14-8l4-1h-7m23 22h3c1-1 0-1-1-1-2 0-3 0-2 1m-6 1-7 5-6 3c-1 0-7 7-7 9l-4 5c-4 4-5 5-5 8l-2 11c-2 9-2 12 0 5l3-8 2-5c0-3 1-6 4-8l5-8c1-3 3-5 5-6l7-5c2-2 5-5 7-5 3-2 2-2-2-1m-44 19c-6 3-12 6-13 8l-8 6c-7 3-13 9-16 14-3 6-2 7 2 1 3-6 8-9 13-12 3-1 7-3 10-7l6-5 6-3 8-5 3-2-11 5m23 43-5 7-7 11-6 11c-5 5-9 12-9 14l7-7c9-11 11-14 11-16 0-3 4-11 6-13 2-1 5-8 4-9l-1 2m249-83c3 0 8 3 12 5l8 3 5-2 8-2h2l-6-1c-10 2-13 1-20-2l-11-3c-3 0-3 0 2 1m0 11 2 1v-1l-3-1 1 1m2 8c5 1 10 4 12 6 3 2 10 4 9 2l-2-1-4-2-15-6v1m-72-9 1 4 1-4-1-5-1 5m6 0 1 4c1 0 2-1 2-4s0-4-2-4-1 1-1 4m-6 17 1 4 1-4-1-5-1 5m6 0 1 4c1 0 2-1 2-4s0-4-2-4-1 1-1 4m-128-14 1 4c1 0 2-1 2-4s0-5-2-5-1 1-1 5m7-1 1 4c1 0 2-1 2-4s0-4-2-4-1 1-1 4m-7 18 1 4c1 0 2-1 2-4s0-5-2-5-1 1-1 5m7-1 1 4c1 0 2-1 2-4s0-4-2-4-1 1-1 4m158 15c0 5 2 5 3 0l-1-4c-2 0-2 1-2 4m-10-2-1 4c0 3 1 4 2 3l1-4c0-3-1-4-2-3m25 1 1 4 1-3-1-4c-1-1-1 1-1 3m6 1c1 6 3 7 3 1l-2-4c-1-1-1 0-1 3m6 1c1 6 3 7 3 1l-2-4c-1-1-1 0-1 3m-114 11c-2 1-1 9 0 9 3 0 4-2 4-6-1-3-3-5-4-3m9 4v4l2 1c2 0 2-1 2-5s0-5-2-5-2 1-2 5m-117 5c3 3 3 3 12 4h9l3-3 2-4h-28zm42-1c3 5 3 5 13 5h9l2-3 3-4h-14c-13 0-14 0-13 2m-54 17v7h10v-14h-10zm42 0v7h9v-14h-9zm41 0v7h9v-14h-9zm-82 13-2 4 2 4 4 2 4-2 2-4-2-4-4-2-4 2m42-1c-4 3-2 11 3 11 3 0 6-3 6-6s-3-6-6-6l-4 1m174 3c-2 2-2 4-2 13v11h5l7-1h2v-10c0-9-1-11-2-13-3-3-7-3-10 0m28 0c-2 2-2 3-2 12v10h5c8 1 7 2 7-9 0-8 0-11-2-13-1-3-5-3-8 0m44 23-2 6v4h3l6-1c2 0 2 0 2-3 0-7-5-10-9-6m16 0-1 5c0 3 0 4 2 4l5 1h4v-4l-2-6c-2-3-7-2-8 0m-33 1-2 6c0 4 1 5 8 3 3 0 3-1 3-4 0-6-5-9-9-5m51-1c-1 1-2 2-2 5 0 5 0 5 3 5 7 2 7 2 7-4 0-4 0-5-2-6h-6m-17 23-2 6v4h11v-4c0-7-6-10-9-6m-18 0-1 6v4h11v-4l-2-5c-2-2-6-2-8-1m-190-9c-3 4-3 5-3 12v7h6l7-2 1-7c0-7 0-8-4-11l-4-3zm40-2c-3 2-3 3-3 10v8l7 1 7 1v-8c0-7 0-8-3-11l-4-4-4 3m-98 24 7 1 6-1-6-1-7 1m3 6h7c2-1 0-1-4-1l-3 1m131 29-2 4c0 5 8 7 11 2v-5c-2-3-7-4-9-1m-212 44-9 2h-25c2 2 11 4 17 4l14-2 16-1c7-1 8-1 5-2-4-1-13-2-19-1m65 61c-8 2-16 2-22 1l2 1c7 3 14 3 23 1l18-2c10 0 10 0 7-2-5-1-18-1-28 1m79 2c-9 2-15 2-20 1s-5 0 0 2c6 2 14 2 23 1l18-3c8-1 9-1 5-2-6-1-16-1-25 1m77 1c-8 2-17 2-22 1l2 1c6 3 13 4 23 2l19-3c8-1 9-1 5-2-6-1-17-1-27 1m-109 13c-6 1-19 2-23 1l2 1c5 3 15 3 26 1l16-2c8 0 8-1 5-2-5-1-20-1-26 1m78 2c-8 2-18 2-23 1l2 1c6 3 13 4 23 1l19-1c10 0 10-1 7-2-6-2-19-2-28 0m-35-62c0 5 0 6 2 6s2-1 2-6 0-7-2-7-2 1-2 7m16 0c0 5 0 6 2 6s2-1 2-6 0-7-2-7-2 1-2 7m77 0c0 6 0 6 3 6s2 0 2-6 0-7-2-7-3 0-3 7m16 0c0 6 0 6 3 6s2 0 2-6 0-7-2-7-3 0-3 7"/></svg>