<svg version="1.0" xmlns="http://www.w3.org/2000/svg" width="833.333" height="833.333" viewBox="0 0 625 625"><path d="M296.4 3C197.3 9 106.9 63.8 54.9 149.5c-22.5 37-36.3 76.9-42.5 122-2.5 18.2-2.5 58.8 0 77 11.1 81.6 49.4 150.4 112.1 201.7 67.6 55.3 158.8 78.3 246.5 62.2 47.8-8.7 94.8-30.2 134-61.4 13.5-10.7 37.3-34.5 47.9-48 34.5-43.5 55.4-92 64.4-149 1.8-11.6 2.1-17.8 2.1-44 0-33-1-42.9-6.9-69.5C587.7 129.8 500.3 39.7 391 12c-30.3-7.7-63.7-10.9-94.6-9m61.6 7.9c121.2 18.5 217.5 106.3 248 226 6.1 24.1 9.7 58 8.7 82.9-.7 16.4-2.4 33.2-3.6 34.4-.4.4-14.2.4-30.6 0l-30-.7-.3-7.6c-.3-7.3-.4-7.7-4.1-11.3l-3.7-3.7-12.9 1.5c-7 .9-13.2 1.3-13.6 1-.5-.3-.9-1.3-.9-2.2-.1-2.9-11.1-17.1-14.9-19.2-5.4-3-9.1-6.4-9.1-8.4-.1-3.1-3.4-10-7-14.5-4.6-5.6-13.7-10.2-21.6-10.9l-6.4-.5v-34.8c0-22.3.4-34.9 1-35.1 1-.3-17.1-22-18.8-22.6-.5-.1-5.5 4.8-11.1 11s-9.7 11.4-9.2 11.6c1.4.5 1.5 20.2.1 20.2-.5 0-1 1.3-1 3 0 3.4-.6 3.6-3.8 1.4-1.5-1-2.2-2.5-2.2-4.9 0-2.7-.6-3.7-3.4-5.4-4.3-2.7-4.6-2.7-4.6.9 0 2.8-.2 3-2 2-1.4-.8-2-2.1-2-4.5 0-2.9-.6-3.9-3.2-5.5-4.3-2.6-4.8-2.5-4.8 1 0 2.8-.2 2.9-2 1.8-1.4-.9-2-2.4-2-4.9 0-3.1-.5-3.8-3.5-5.2L380 206v2.5c0 2.7-.1 2.8-2.4 1.9-1-.4-1.6-1.8-1.6-3.9 0-2.7-.6-3.7-3.4-5.4-4.3-2.7-4.6-2.6-4.6.5 0 3.9-2.4 2.4-2.8-1.7-.2-2.6-1-3.8-3.3-5.2-4.1-2.3-4.9-2.2-4.9.8 0 2.3-.2 2.4-2 1.3-1.3-.8-2-2.4-2-4.3 0-2.3-.7-3.5-2.9-4.8-3.8-2.2-4.1-2.2-4.1.8 0 1.8-.4 2.3-1.5 1.9-.9-.4-1.5-1.9-1.5-3.8 0-2.4-.7-3.6-2.9-4.9-3.7-2.2-4.1-2.1-4.1.3 0 2.2-.1 2.3-2.4 1.4-1-.4-1.6-1.8-1.6-3.5 0-2.3-.8-3.4-3.5-5-4.9-2.9-4.8-6.8.5-15.1l4-6.3v-23.4l-3.2-1.7c-1.8-.9-7.9-6.1-13.5-11.7l-10.2-10-11.3 10.4c-6.2 5.8-12.5 11-14 11.7L278 130v23.1l4 7.3c2.2 4 4 8 4 8.9 0 1-1.5 2.3-3.5 3.1-3 1.3-3.5 2-3.5 4.9 0 2.3-.6 3.7-1.6 4.1-2.7 1-3.4.7-3.4-1.9 0-2.8-.8-3-4.5-1.3-1.9.9-2.5 1.9-2.5 4.4 0 2.3-.6 3.7-2 4.4-1.8 1-2 .8-2-2 0-3.3-.7-3.6-4.5-1.8-1.9.9-2.5 1.9-2.5 4.4 0 2.3-.6 3.7-2 4.4-1.8 1-2 .8-2-2 0-3.3-.7-3.6-4.5-1.8-1.9.9-2.5 1.9-2.5 4.4 0 2.3-.6 3.7-1.9 4.4-2.8 1.5-3.1 1.3-3.1-2 0-3.5 0-3.5-4.5-1.6-3 1.3-3.5 2-3.5 4.9 0 2.6-.5 3.6-2.5 4.5-2.4 1.1-2.5 1-2.5-1.8 0-3.4-.9-3.6-5-1.5-2.5 1.3-3 2.2-3 5 0 1.9-.2 3.5-.4 3.5s-1.1.3-2 .6c-1.3.5-1.6-.3-1.6-5 0-8.8-4.5-15.9-12.9-20.1-2.5-1.3-5.2-1.6-10.2-1.3-8.9.5-14.2 3.9-18.1 11.7l-2.8 5.5v28.1c0 32.4 1.2 28.7-11.6 36.8-8.4 5.3-9.8 7.1-15.3 19.8-4.1 9.5-6.6 12.6-14.2 18.3-2.2 1.6-5.1 5.4-7.3 9.6-3.1 5.9-4.6 7.5-10.4 11.4-8.2 5.4-10.2 7.5-13.8 14.6-2.9 5.9-5 13-6.6 22.5-.5 3.3-1.2 7-1.4 8.1-.4 2.2-.5 2.2-26.6 1.8-14.5-.3-30-.7-34.5-1l-8.1-.6-1.1-6.2c-4.9-27.9-5.4-70.7-1.2-97.8 13.2-85.3 60.9-160 132.4-207.5C189.1 32.2 235.9 15 280 10.1c5.2-.6 10.9-1.3 12.5-1.5 1.7-.2 14-.3 27.5-.1 18.3.3 27.9.9 38 2.4m-43 106.7 8.5 8.5-4-.7c-5.4-1-20.9-1-26.7-.1l-4.6.8 8.6-8.5c4.8-4.7 8.9-8.6 9.2-8.6s4.4 3.9 9 8.6m-7.3 9.7c.4.8 2 1.7 3.6 2.1 2 .5 2.7.3 2.7-.9 0-.8.7-1.5 1.5-1.5s1.5.7 1.5 1.5c0 1.8 5.2 3.3 5.8 1.7.6-2 3.2-1.3 3.2.8 0 1.1.2 2 .4 2s1.1.3 2 .6c1.1.4 1.6.1 1.6-1 0-.9.5-1.6 1-1.6.6 0 1 4 1 10.1 0 9.2-.2 10.1-1.7 9.4-5-1.9-15.9-3.5-24.8-3.5s-19.8 1.6-24.7 3.5c-1.6.7-1.8-.1-1.8-8.8 0-9 1.1-12.8 2.9-9.9 1.1 1.8 5.1.2 5.1-1.9 0-1.1.7-1.9 1.5-1.9s1.5.6 1.5 1.4c0 .9.8 1.2 2.5.8 1.4-.2 2.5-1.1 2.5-1.8 0-.8.7-1.4 1.5-1.4s1.5.4 1.5 1c0 .5 1.4 1 3 1q3 0 3-1.5c0-1.9 2.6-2 3.7-.2m17.1 23.2c3.4 1 6.2 2.2 6.2 2.6 0 .5-1.7 3.4-3.7 6.5-2.5 3.7-4.1 5.3-5.1 4.9-.9-.3-4.8-1-8.9-1.6-6.8-.9-14.8-.4-24.5 1.7-2.4.6-2.9.1-5.7-5.5l-3.1-6 2.2-1.2c7.3-3.9 30.8-4.7 42.6-1.4m-6.8 14.6 5 1.1v32.7l-5.7 1.2c-6.6 1.3-22.1.7-27-1.1l-3.3-1.2v-30.6l3.3-1.1c1.7-.5 4.1-1.2 5.2-1.4 4-.9 17.5-.7 22.5.4M286 185v12l-3.7 1.8c-5.4 2.7-65.9 29.2-66.7 29.2-.3 0-.6-3.8-.6-8.6v-8.5l3-1c2.6-1 3-1.6 3-5 0-2.1.2-3.9.4-3.9s1.1-.3 2-.6c1.3-.5 1.6.1 1.6 2.5 0 3.6 0 3.6 4.5 1.7 3.1-1.3 3.5-1.9 3.5-5.1 0-2.8.5-3.7 2.3-4.4 1.9-.7 2.2-.5 2.5 2 .4 3.3 1.1 3.5 5.2 1.4 2.5-1.3 3-2.2 3-5 0-1.9.2-3.5.4-3.5s1.1-.3 2-.6c1.3-.5 1.6.1 1.6 2.5 0 3.6.1 3.6 4 1.6 2.5-1.3 3-2.2 3-5 0-1.9.2-3.5.4-3.5s1.1-.3 2-.6c1.3-.5 1.6.1 1.6 2.6 0 2.7.3 3.1 1.8 2.5.9-.4 2.5-1 3.5-1.2 1.1-.4 1.7-1.5 1.7-3.7 0-3.3 1.5-5.6 3.7-5.6.8 0 1.3 1.2 1.3 2.9v2.9l4-1.5c3.5-1.4 4-2 4-4.9 0-3 1.8-5.3 4.3-5.4.4 0 .7 5.4.7 12m42.3-8.6c.9.7 1.7 2.5 1.7 4 0 1.9.9 3.2 3.3 4.6l3.2 2 .3-2.5c.3-2.1.6-2.3 2.3-1.5 1.2.7 1.9 2.1 1.9 3.9 0 2.2.8 3.4 3.3 5l3.2 2 .3-2.4c.4-2.8.4-2.8 2.6-1.9 1 .4 1.6 1.8 1.6 4 0 2.7.6 3.6 3 4.9 3.8 2 3.8 1.9 4.2-1 .3-2.4.4-2.5 2.6-1 1.4 1 2.2 2.6 2.2 4.4 0 1.9.8 3.4 2.5 4.5 3.2 2.1 3.5 2 3.5-.9 0-2.7.1-2.8 2.4-1.9 1 .4 1.6 1.8 1.6 3.9 0 2.6.7 3.9 2.9 5.4 3.7 2.7 4.1 2.6 4.1-.4 0-1.4.6-2.5 1.3-2.5 2.2 0 3.7 2.3 3.7 5.7 0 2.6.6 3.6 3 4.8 3.9 2 4 2 4-1.5 0-2.8.2-3 2-2 1.4.7 2 2.1 2 4.5 0 2.6.7 3.8 2.9 5.4 3.7 2.7 4.1 2.6 4.1-.4 0-2.7 1-3.1 4.1-1.5 1.4.8 1.9 2.1 1.9 4.9 0 3.3.4 4 4 6l4 2.2v-7.2l2.9 1.7 2.9 1.7-2.4 1.9c-1.9 1.5-2.4 2.9-2.4 6.2 0 3.9-1.3 6.6-3.2 6.6-.4 0-.8-1.4-.8-3.1 0-3-.1-3.1-2.2-1.7-1.3.8-2.7 2.5-3.3 3.6-.5 1.2-1.4 2.2-1.8 2.2-.5 0-19.3-11.4-41.8-25.2L325 198.5v-11.7c0-6.5.3-11.8.8-11.8.4 0 1.5.7 2.5 1.4m-127.5 8.2c4.9 2 9 6 11.3 10.9 1.5 3.3 1.9 6.5 1.9 19.3 0 16.6-.5 18.5-5.7 23.4-3.2 3-9.1 5.8-12.5 5.8-1.2 0-3.2-1-4.5-2.2-2-1.8-2.3-1.9-2.3-.5 0 .9-.4 1.7-1 1.7-.5 0-1-1.5-1-3.3 0-2.2-1.1-4.4-3.5-7.2l-3.4-4-.1 4c-.1 3.7-.2 3.9-1.5 2.1-.8-1.1-1.5-3.8-1.5-6.1 0-3.1-.6-4.7-2.5-6.5-2.3-2.1-2.5-3.1-2.5-10.5 0-14.3 3.4-21.5 12.2-25.9 5.9-3 11.2-3.3 16.6-1m253 21c-.2.1-3.5-.5-7.3-1.5l-7-1.7-.3-7.3-.3-7.3 7.6 8.7c4.2 4.8 7.4 8.9 7.3 9.1m-162.8-5c5.5 2 22.6 2.3 28.8.5 4.4-1.2 4.4-1.2 13.8 4.5 5.2 3.1 9.4 6 9.4 6.5 0 .4-3.7 2.1-8.2 3.6-7.8 2.6-9.3 2.7-25.8 2.7-16.1 0-18.2-.3-26.3-2.7-4.9-1.5-10.9-3.8-13.4-5l-4.5-2.3 10.3-4.7c5.7-2.6 10.6-4.7 10.9-4.7s2.5.7 5 1.6m147 37.9V273l-5.9-4.3-6-4.2v-15.8l-.1-15.8-3-1.7-3-1.7v-22.3l7.3-1.5c3.9-.8 8-1.5 9-1.6 1.6-.1 1.7 2.2 1.7 34.4m10.8-32.4 5.2 1.2v35.4c0 34.4-.1 35.3-1.9 34.4-1-.6-4.4-1.4-7.5-1.7l-5.6-.7v-70.9l2.3.6c1.2.3 4.6 1.1 7.5 1.7m-179.5 6.2c22.1 10.3 53.4 10.9 74.7 1.3 1-.4 12.2 5.9 33 18.8 17.3 10.6 31.6 19.8 31.8 20.4.1.5-.5 1.8-1.5 2.8-1.7 1.7-1.8 1.7-2.1-1.4-.4-3.9-.8-3.9-4.4-.5-2.1 2-2.8 3.6-2.8 6.4 0 2.2-.7 4.5-1.7 5.5-1.7 1.7-1.8 1.6-2.1-1.9l-.3-3.7-4 3.2c-3.4 2.7-3.9 3.7-3.9 7.3 0 6.2-3.6 9.1-4.2 3.3l-.3-3.1-3.2 2.7c-2.8 2.3-3.3 3.5-3.3 7.1 0 2.6-.6 4.7-1.5 5.5-1.3 1.1-1.5.7-1.5-2.4 0-3.8-.8-4.4-2.8-2.4-1 1-3.3-.9-11-8.5l-9.8-9.7-10.9 9.7c-9 8.1-10.5 9.9-8.7 10.1 1.8.3 2.2 1 2.2 3.8 0 3.3-.1 3.4-4 3.4s-4 .1-4 3.5c0 3.3-.2 3.5-3.5 3.5s-3.5-.2-3.5-3.5c0-3.5 0-3.5-4.5-3.5s-4.5 0-4.5 3.5c0 3.2-.2 3.5-3 3.5s-3-.3-3-3.5c0-3.5 0-3.5-4.5-3.5s-4.5 0-4.5 3.5c0 3.2-.2 3.5-3 3.5s-3-.3-3-3.5c0-3.5 0-3.5-4.5-3.5s-4.5 0-4.5 3.5c0 3.2-.2 3.5-3 3.5s-3-.3-3-3.5c0-3.4-.1-3.5-4-3.5-3.8 0-4-.2-4-2.9 0-2 .6-3.1 1.7-3.3s-1.7-3.3-9.2-10.1l-10.9-9.7-8.9 8.7-8.8 8.8-3.5-3.9-3.4-3.9v4.6c0 2.6-.3 4.7-.6 4.7-1.8 0-3.3-4.1-3.4-9 0-5.2-.3-5.9-4-9.5l-4-3.9v4.3c0 3.8-.2 4.2-1.5 3.1-1-.8-1.5-3-1.5-6.4 0-4.6-.4-5.6-3.5-8.6l-3.5-3.4v4.4c0 4.1-.1 4.2-1.5 2.4-.8-1-1.5-3.8-1.5-6.1v-4.2l5.4-1.5c3.9-1.2 6.4-2.7 9.3-5.9 2.3-2.4 4.4-5.3 4.7-6.5.5-1.4 5.6-4.2 18.9-10 10-4.4 20.7-9.2 23.7-10.5 3-1.4 5.7-2.4 6-2.3s3.1 1.4 6.3 2.9m-94.7 12.4c.7 1 1.4 3.6 1.4 5.8 0 2.7.9 5 2.5 7l2.5 3v-3.9c0-3.8 0-3.9 2-2.1 1.4 1.3 2 3.1 2 6.1 0 3.4.6 5.1 3 7.6l2.9 3.3.1-3.9c0-3.3.2-3.7 1.5-2.6 1 .8 1.5 3 1.5 6.1 0 4 .5 5.5 3 8.1l2.9 3.3.1-4.5.1-4.5 1.9 2.4c1.4 1.6 2 3.8 2 7 0 3.7.6 5.4 3 8.1l2.9 3.5.1-5v-5l2.5 3c1.9 2.3 2.4 4.2 2.5 8.2 0 4.4.5 5.8 3 8.5l2.9 3.3.1-4.9v-4.9l2.5 2.3c2.3 2.1 2.3 2.4.7 3.6-1.6 1.3-1.6 1.3.1 1.4 1.6 0 1.7 1.6 1.7 19.2 0 16.4-.2 19-1.4 17.8-.7-.8-12.9-16.5-27-34.8L172 253.8v-15.4c0-8.5.3-15.4.6-15.4.4 0 1.3.8 2 1.7m226.7 63.5c-12.5 12.5-23.4 22.8-24.1 22.8s-1.6 1-2.1 2.2c-.5 1.3-2.8 4.1-5 6.3l-4.1 3.9v-18.5c0-17.3.1-18.7 2-20.4 2-1.8 2-1.7 2 2.5v4.4l3-2.9c2.4-2.3 3-3.7 3-6.9 0-3.7 2.1-7.6 4.2-7.6.4 0 .8 1.6.8 3.6v3.5l3.5-2.7c3-2.2 3.5-3.2 3.5-6.7 0-3.7 2.1-7.7 4.1-7.7.4 0 .9 1.4 1.1 3.1l.3 3.1 2.8-2.2c2.1-1.7 2.7-3 2.7-6.2 0-3.9 2.1-7.8 4.2-7.8.4 0 .8 1.7.8 3.7v3.7l3-2.9c2.4-2.3 3-3.7 3-7 0-3.8 1.3-6.5 3.2-6.5.4 0 .8 1.3.8 3 0 3.6.6 3.7 3.7.8 1.6-1.5 2.3-3.3 2.3-5.9 0-2.2.7-4.5 1.8-5.5 1.6-1.7 1.7-1.1 2 13.1l.3 14.9zM184 271.9l11.1 14.5-5.2 3.3c-5.5 3.4-9.9 7.2-9.9 8.4 0 .4 1.4-.6 3.1-2.2s3.8-2.9 4.6-2.9 3.2-1 5.3-2.2c2.1-1.3 4-2 4.3-1.8.2.3 4 5.3 8.6 11.2 8 10.5 8.2 10.8 5.9 11.7-2.6 1.1-6.3 4.3-9.8 8.6l-2.5 3 3-2.6c2.8-2.5 11.6-7.9 12.7-7.9.7 0 8.7 10.6 9.4 12.5.5 1.3-2.2 1.5-21 1.5H182l-.2 36.6-.3 36.6-3.9 1.3c-4.2 1.5-8.8 5.4-11.4 9.8-.9 1.5-2.5 3-3.6 3.3-1.1.4-5.5 4.2-9.8 8.6L145 431v-16.8c0-15.8.1-16.9 2.1-18.6 1.6-1.3 1.9-2.4 1.4-4.4-.3-1.5-.9-4.7-1.3-7.1l-.7-4.5-6.8-1.7c-3.8-.9-7.1-2-7.5-2.3-1.1-1.1 4.1-9.5 8.9-14.6 2.6-2.7 3.9-4.6 3-4.2-3.7 1.3-8.8 6.4-12 11.9-1.9 3.2-3.6 6-3.7 6.2-.2.1-4.4-.6-9.4-1.8-5.7-1.3-12.6-2.1-18.2-2.1h-9.1l.7-5.6c.9-7.8 4.1-14.7 8.8-19 5-4.5 4.4-5.4-1-1.4l-4.1 2.9 1.5-4.2c1.7-4.8 6.2-12.7 7.2-12.7.4 0 2-1.2 3.6-2.6 4.4-4.1 13.7-9.4 16.5-9.4 1.4 0 3.3-.5 4.1-1 1.8-1.2.6-1.2-4.2-.1-3.6.9-3.7.8-2.7-1.7 2.4-6.2 5.6-10.3 11.6-14.9 6.6-4.9 6.7-5.1 14.1-21.6 3.4-7.4 7.1-11.3 14.7-15.6 2.8-1.6 5.9-3.8 6.9-5 1.1-1.2 2.3-2 2.7-1.9.4.2 5.8 6.8 11.9 14.7m173.4 2 7.9 8-5.9-.5c-11-1-10.4-.5-10.4-8.4 0-3.9.1-7 .3-7 .1 0 3.8 3.6 8.1 7.9m76.5-1.7c3.8 3.6 9.7 5.2 24.6 6.7 4.4.5 10.4 1.9 13.3 3.1 6.5 2.8 14.4 11.1 16.5 17.5 1.6 4.7 1.1 5.3-2.5 3.4-1.1-.6-2.2-.8-2.5-.6-.3.3 1 1.3 2.9 2.3 3.1 1.6 14.5 9.5 16 11.1 7.3 8 11.8 14.5 11.8 17.2 0 1-2.4 1.5-11.6 2.6l-5.1.5-.1-3.6c-.1-2.7-1.4-5.3-5.1-10.1-2.7-3.5-5.5-7.9-6.1-9.8-.9-2.8-1.7-3.4-4.3-3.7-2.7-.3-3.2-.7-2.9-2.8.4-3.9.4-4.2-.8-9.4-1.1-5.6-1.4-6.1-3-5.1-.9.5-.9 1-.1 1.8 1.7 1.7 1.3 4.7-.6 4.7-1.5 0-1.5.2.2 1.4 1.3.9 2 2.8 2.1 6l.3 4.6H473c-3.3 0-4-.3-4-2 0-1.1.3-2 .8-2 2.5-.1 3-1.6 1.7-6.5-1.7-6.9-3.9-7.1-5.9-.4-1.6 5.6-1.4 6.9 1 6.9 1 0 1.4.8 1.2 2.2-.2 1.9-.9 2.3-3.8 2.3-3.4 0-3.5 0-3.5-4.4 0-3.4.4-4.5 1.8-4.9 1.7-.4 1.7-.5 0-1.7-1-.8-1.8-2.4-1.8-3.7s-.4-2.4-1-2.5c-.6-.2-1 3.2-.9 8.7.1 7.5-.1 9-1.5 9.5-.9.3-2.2 2.4-2.8 4.8-.6 2.3-3.2 7.3-5.7 11.2-3.4 5.1-4.6 7.9-4.6 10.7 0 3-.4 3.8-1.9 3.8-1 0-3.9.3-6.5.6l-4.6.7v-12.6c0-7.5.5-13.7 1.2-15.2.6-1.4.9-2.7.6-3-.2-.3-6.9-1.9-14.8-3.5l-14.3-3.1-10.4 2.1c-5.8 1.2-10.6 2-10.9 1.8-.2-.2 3.4-4.1 8-8.7l8.3-8.2 7.4-1.1c4.1-.5 9.2-.7 11.3-.5 2.6.4 3.5.3 2.5-.4-.7-.5-5.2-.9-9.9-.9h-8.5l9-9c4.9-5 9.6-9 10.5-9 .8 0 3.2.9 5.3 2 4.8 2.6 4.8 1.8 0-1.1-2.1-1.2-4-2.4-4.2-2.6-.2-.1.4-1.2 1.4-2.3 1.6-1.7 2-1.8 4.4-.5 1.4.8 4.2 2.9 6 4.7m-179.8 2.4c4.1 3.6 7.5 6.9 7.7 7.2.1.4-3.5.5-8 .2l-8.3-.5-.3-6.8c-.2-3.7.1-6.7.6-6.7s4.3 3 8.3 6.6M348 304v22h-15v-21.4c0-16.2.3-21.6 1.3-21.9.6-.3 4-.6 7.5-.6l6.2-.1zm12.4-21.4 4.6.7v41.5l-3.9.9c-2.1.6-5.6.7-7.7.4l-3.9-.6-.3-21.8-.2-21.7h3.3c1.9 0 5.5.3 8.1.6M244 304.5V326h-16l.2-20.8.3-20.7 5-.6c2.8-.3 6.2-.7 7.8-.7l2.7-.2zm13.4-20.9 4.6.7V326h-17v-43h3.9c2.1 0 5.9.3 8.5.6m12.6 11.9c0 3.4.1 3.5 4 3.5s4-.1 4-3.5c0-3.3.2-3.5 3.5-3.5s3.5.2 3.5 3.5c0 3.4.1 3.5 4 3.5s4-.1 4-3.5c0-3.2.2-3.5 3-3.5s3 .3 3 3.5c0 3.5 0 3.5 4.5 3.5s4.5 0 4.5-3.5c0-3.3.2-3.5 3.5-3.5s3.5.2 3.5 3.5c0 3.5 0 3.5 4.5 3.5s4.5 0 4.5-3.5c0-3.3.2-3.5 3.5-3.5h3.5v34h-2.3c-1.3 0-3.2-.9-4.1-1.9-1-1.1-3.1-2.5-4.7-3.1-2.7-1.2-2.9-1.6-2.9-6.6 0-5.1.1-5.4 2.5-5.4 1.4 0 2.5-.5 2.5-1 0-.6-1.1-1-2.5-1-2.1 0-2.5-.5-2.5-3q0-3-1.5-3-1.35 0-1.2 2.7c.2 2.3-.2 2.8-2.2 2.8-3.5.1-3.8 2.3-.4 2.7 2.6.3 2.8.6 3.1 5.3l.3 5-4.6 1.9c-2.6 1-4.9 2.5-5.2 3.2-.4 1.1-4.7 1.4-21.4 1.4H263v-34h3.5c3.3 0 3.5.2 3.5 3.5m148.4 15c6.4 1.4 11.8 2.5 12.1 2.5 1.2 0 .4 3.1-1 3.6-1.6.6-21.6-2.5-22.6-3.5-1.3-1.1-2-5.1-1-5.1.5 0 6.1 1.1 12.5 2.5m64.6 3c0 2.9-.4 3.5-2.2 3.5-1.3.1-6.8.5-12.3.9-6.4.6-10.4.5-11.2-.1-1.5-1.2-1.8-3.2-.4-2.3.5.3 1.1-.3 1.3-1.2.3-1.5 2.1-2 11.8-2.9 6.3-.6 11.8-1.2 12.3-1.2.4-.1.7 1.4.7 3.3m8.1 9.8c3.7 4.4 4.9 6.7 4.9 9.2 0 2.6-.5 3.4-2.2 3.7-2.1.4-2.3 0-2.4-3.6 0-2.8-1-5.7-3.2-9.1-1.7-2.8-3.4-6.6-3.7-8.5l-.5-3.5 1.1 3c.7 1.6 3.4 5.6 6 8.8m-86.1 7.2c0 8.5-.3 15.5-.7 15.5-1.4 0-18.7 2-21.5 2.5l-2.8.4v-29.7l9.8-1.7c5.3-.9 10.2-1.8 10.7-2 .6-.2 1.8-.4 2.8-.4 1.5-.1 1.7 1.3 1.7 15.4m8.6-14.5c3.2.6 8.3 1.5 11.2 2.1l5.2 1v12c0 6.5-.1 11.9-.2 12-1.5.5-22.5 2.5-23 2.2-1.1-.6-1-30.3 0-30.3.5 0 3.5.5 6.8 1m-36.2 1.6c.3.9.6 5.1.6 9.5 0 7.6-.1 7.9-1.9 6.9-1.1-.5-2.6-2.2-3.3-3.7-.7-1.4-2.2-3.1-3.3-3.7s-2.2-1.2-2.4-1.4c-.6-.3 8.1-9.2 9-9.2.4 0 1 .7 1.3 1.6m75.7 10.3c-3.3 6.4-3.8 10-1.9 11.9.9.9.4 1.2-2.5 1.2-3.4 0-3.7-.2-3.7-2.8 0-1.5 1.8-5.3 4-8.7 2.1-3.2 4.5-7.3 5.2-9 1.2-2.7 1.3-2.8 1.6-.8.2 1.2-1.1 4.9-2.7 8.2m32.8-5.6c5.3 9.4 5.4 9.8 4.2 12.3-1.3 3-3.9 3.1-5.1.1-.8-2.1-1.2-1.8-1.4 1.3-.1 1.5-.4 1.6-18.6 3.4l-6.6.7.1-2.7c0-1.5-.6-2.9-1.5-3.2-1.3-.5-1.3-.3-.1 1.2s1.2 1.9 0 3.1c-1.3 1.3-1.7 1.3-3.7-.1-2.9-2-2.8-3 .8-9.5 1.6-3 3-6.2 3-7.1 0-1.3 1.3-1.8 6.3-2.2 3.4-.3 7.8-.8 9.7-.9 10.2-1 10.3-1 12.9 3.6M324.3 326c4.6 5.1 3.9 5.5-8.8 5.5s-13.2-.3-8.9-5.4c4.8-5.7 12.5-5.8 17.7-.1m-56.3 5c0 3.9-.1 4-3.5 4s-3.5-.1-3.5-4 .1-4 3.5-4 3.5.1 3.5 4m10 .1c0 3.9-.1 4-3.2 3.7-2.6-.2-3.4-.8-3.6-2.6-.6-3.7.5-5.2 3.8-5.2 2.8 0 3 .2 3 4.1m12-.1v4h-8v-8h8zm12.6-1.8c-.3 1.3-.6 3.1-.6 4 0 1.4-.9 1.8-4 1.8h-4v-8h4.6c4.3 0 4.6.2 4 2.2M332 331c0 2.9-.4 4-1.5 4-.8 0-1.5-.4-1.5-.9s-.3-2.3-.6-4c-.6-2.7-.4-3.1 1.5-3.1 1.8 0 2.1.6 2.1 4m10.8-.3c-.3 3.6-.5 3.8-3.8 3.8-2.9 0-3.6-.4-3.8-2.3-.6-3.9.5-5.2 4.3-5.2 3.6 0 3.6.1 3.3 3.7m1.9 1.5c-.2 1.3-.4.5-.4-1.7-.1-2.2.1-3.2.4-2.3.2 1 .2 2.8 0 4m9.3-1.2v4h-8v-8h8zm17.8.7 6.1 4.8.1 6.2c0 6.2 0 6.3-2.7 6.3-3.5 0-4.5.7-6.8 4.7-2.4 4.1-3 4.1-5 .3-.8-1.6-2.9-4-4.5-5.2-2.9-2.1-3-2.4-3-11 0-8.3.2-8.9 2.3-9.8 4.6-1.8 7.3-1.1 13.5 3.7m-180.3-.2c0 2.8-.3 3-4.2 3.3l-4.3.3v-7.2l4.3.3c3.9.3 4.2.5 4.2 3.3m11.3-.3c-.3 3-.6 3.3-4 3.6-3.7.3-3.8.3-3.8-3.2s.1-3.6 4.1-3.6c3.9 0 4 .1 3.7 3.2m11 0c-.3 3-.6 3.3-4 3.6-3.7.3-3.8.3-3.8-3.2s.1-3.6 4.1-3.6c3.9 0 4 .1 3.7 3.2m1.9 1.5c-.3 1-.5.2-.5-1.7s.2-2.7.5-1.8c.2 1 .2 2.6 0 3.5m8.3-1.2c0 3.3-.2 3.5-3.5 3.5s-3.5-.2-3.5-3.5.2-3.5 3.5-3.5 3.5.2 3.5 3.5m2.7 1.2c-.3 1-.5.2-.5-1.7s.2-2.7.5-1.8c.2 1 .2 2.6 0 3.5m9.3-1.2c0 3.4-.1 3.5-4 3.5s-4-.1-4-3.5.1-3.5 4-3.5 4 .1 4 3.5m1.7 1.2c-.3 1-.5.2-.5-1.7s.2-2.7.5-1.8c.2 1 .2 2.6 0 3.5m9.3-1.2c0 3.3-.2 3.5-3.5 3.5s-3.5-.2-3.5-3.5.2-3.5 3.5-3.5 3.5.2 3.5 3.5m1.7 1.7c-.2 1.3-.4.5-.4-1.7-.1-2.2.1-3.2.4-2.3.2 1 .2 2.8 0 4m9.1-2c-.3 3-.6 3.3-4 3.6-3.7.3-3.8.3-3.8-3.2s.1-3.6 4.1-3.6c3.9 0 4 .1 3.7 3.2m1.9 1.5c-.3 1-.5.2-.5-1.7s.2-2.7.5-1.8c.2 1 .2 2.6 0 3.5m10 0c-.3 1-.5.2-.5-1.7s.2-2.7.5-1.8c.2 1 .2 2.6 0 3.5m22 0c-.3 1-.5.2-.5-1.7s.2-2.7.5-1.8c.2 1 .2 2.6 0 3.5m42 0c-.3 1-.5.2-.5-1.7s.2-2.7.5-1.8c.2 1 .2 2.6 0 3.5m-8.4.8c1.4.6 1.7 2.1 1.7 10.1v9.4l-4.2-.7c-5.4-1-9.1-1-15 0l-4.8.8v-9c0-9.5.1-9.9 5.4-11.2 3.3-.9 14-.5 16.9.6m219.6 3.4c-2.2.7-175.4 20.8-176.1 20.4-.4-.2 0-1.6.9-3.1s1.8-2.8 1.9-3 87.2-9.9 110.4-12.2c5.8-.6 21.5-2.3 35-3.8l24.5-2.8 2.3 2c1.5 1.4 1.9 2.2 1.1 2.5M302 340v4h-8.5c-4.7 0-8.5.3-8.5.6s.9 1.9 2.1 3.5c1.9 2.7 2.5 2.9 8.5 2.9 5.7 0 6.4.2 6.4 2 0 1.1-.4 2-.9 2s-3.2 1.6-6 3.5-5.5 3.5-6.1 3.5c-.5 0-1 .5-1 1.2 0 .6-1.6 3.5-3.6 6.4-3.3 4.8-3.9 5.2-6.6 4.7-5.6-1.1-9.6 6.9-4.8 9.9 2.3 1.5 2.7 4.8.6 4.8-1.1 0-1.6 1.5-1.8 5.2-.3 5.2-.4 5.3-3.5 5.6l-3.3.3V362h-18l-.2 18.7-.3 18.8-3.2.3-3.3.3V389h-8.9l-.3 5.2-.3 5.3-4.2.3-4.3.3V362h-18v38h-2.5c-2.4 0-2.5-.3-2.5-5.5V389h-10v5.5c0 5.4 0 5.5-3 5.5h-3v-64h119zm52 19.1v23.2l-2.6-4.9c-5.5-10.4-12.8-18.4-19.7-21.5-1.5-.7-2.7-2-2.7-3.1 0-1.4.8-1.8 3.9-1.8 3.2 0 4.3-.5 6-2.9 1.2-1.6 2.1-3.2 2.1-3.5s-2.7-.6-6-.6h-6v-8h25zm172.9-14.5c5.3 2.7 9.4 7.4 10.6 12.5.6 2.5.2 2.8-5.7 5.2-5.5 2.2-6.3 2.8-6.6 5.3-.2 1.6-1 4.4-1.8 6.1-1.6 3.5-.8 6.4 2.2 8.1.9.5 1.4 1.6 1.3 2.4-.3 1.2-3.4.1-14.4-4.7l-14-6.3-.3-14.5-.3-14.6 4.3-.5c2.4-.3 5.4-.7 6.8-1 7.6-1.1 12.8-.5 17.9 2m-45.5 5.8c5.2 3.1 9.5 9.5 10.3 15.6.3 2.2.2 4-.1 4-2.3 0-4.5-2.4-5-5.5-.9-4.6-5.7-10.1-10.2-11.5-10.6-3.5-21.4 6.9-18.5 17.7.6 2.1 1.8 4.8 2.7 6.1s1.4 2.5 1.3 2.6c-1 .9-11 5.6-11.9 5.6-.6 0-1-3.3-1-8.5 0-8.3-.1-8.6-2.6-9.5-3.4-1.3-3.4-1.4-3.4 1.6 0 3.3-2.4 2.7-2.8-.7-.6-4.7-6.2-6.8-6.2-2.3 0 3.4-2.4 2.6-2.8-1-.4-3.4-4.1-5-9.4-4.1-3.5.6-3.8.9-3.8 4.1 0 3-.3 3.4-2.5 3.4-2.1 0-2.5-.5-2.5-2.9 0-2.7-.2-2.8-3.2-2.2-2.8.6-3.4 1.2-3.8 4.1-.4 2.7-1 3.6-2.7 3.8-2 .3-2.3-.1-2.3-2.7 0-2.1-.5-3.1-1.6-3.1-1.2 0-1.4-1-1.2-4.8l.3-4.7 34.5-4.2c19-2.3 36.6-4 39.1-3.9 2.9.2 6.5 1.3 9.3 3M361 354.5c2.7 3.9 3 5.1 3 12v7.7l-4-3.2-4-3.2v-9.4c0-6 .4-9.3 1-8.9.5.3 2.3 2.6 4 5m-42.3 1.2c4.4 4.7 11 20.6 13.7 33.4l.6 2.6h-35l.6-2.6c3.4-15.8 12.7-36.1 16.5-36.1.5 0 2.2 1.2 3.6 2.7m-17.2 3.4c-6.9 6.4-12.5 15.7-16.4 27.4-2.8 8.4-3.2 9.1-6.6 10.4-1.9.8-3.8 1.1-4.1.8-1.1-1 2.7-12.1 6.8-20 4.8-9.2 12.5-17.4 19.9-21 2.9-1.5 5.5-2.7 5.7-2.7s-2.2 2.3-5.3 5.1m29.1 2.4c6.6 6.5 11.1 14.3 15 25.9 1.3 3.8 2.4 7.2 2.4 7.6s-3.1 0-6.9-.9l-6.9-1.5-.7-4.6c-1-6.9-5.2-18.7-9.5-26.6-3.5-6.5-3.6-7.1-1.6-6.6 1.1.3 4.9 3.3 8.2 6.7m149.9-4.3c2.4 2.2 3.8 4.5 4.2 7l.5 3.7-10.1 5c-5.5 2.8-10.5 5.1-11.1 5.1-1.9 0-5-6.4-5-10.3 0-8.1 5.4-13.7 13.1-13.7 4.2 0 5.5.5 8.4 3.2m-170.7-1.5c-.2.5-1.9 3.9-3.9 7.8-4 7.6-7.3 17.5-8.4 24.7l-.7 4.5-6.1 1.1c-3.3.6-6.2 1-6.4.8-.6-.6 4.5-14.3 7.7-20.6s14.5-19 17-19c.6 0 1 .3.8.7m22.4 2.2c6.6 4.2 13.3 11.6 17.2 19.1 3.6 6.8 8 19.3 7.4 20.9-.1.5-1.8.2-3.7-.7-2.9-1.5-3.6-2.7-5.5-8.7-3.7-11.7-8.6-20.5-15.1-27.3-3.4-3.4-5.8-6.2-5.5-6.2s2.7 1.3 5.2 2.9m270-1.9h8.8v5.3l-21.2-.6c-11.6-.4-24.4-.7-28.5-.7-7.2 0-7.3 0-7.3-2.7v-2.6l19.7.6c10.8.4 23.6.7 28.5.7m-49.4 2.7c-.3 2.4-1.5 3.1-12.3 7.4-6.6 2.6-12.6 4.8-13.2 4.8-.7.1-1.3-1-1.3-2.3 0-2.1 1.4-3 12.3-7.4 6.7-2.8 12.8-5.1 13.5-5.1.9-.1 1.2.8 1 2.6M382 376.2v18.3l6-.3 6-.4v10.6c0 10.1-.1 10.6-2.1 10.6h-2.1l2.1 3.6c1.7 2.8 2.1 5.2 2.1 11.5v7.9h-28v-78.9l3.8-.4c2-.2 5.6-.4 8-.5l4.2-.2zm227.9-13.6c.2.2 0 1.9-.3 3.9l-.7 3.5H583c-24.8 0-26.1-.1-28-2-1.2-1.2-1.8-2.6-1.4-3.3 2.1-3.7 2-3.7 29.3-3 14.6.3 26.8.7 27 .9M424 386.8v24.9l-13.7 1.5c-7.6.8-14.1 1.2-14.6.8-.4-.3-.6-11-.5-23.6.3-22.9.3-22.9 2.6-23.2 1.9-.3 2.2.1 2.2 2.8 0 2.9.3 3.2 2.3 2.6 1.2-.3 2.8-.6 3.5-.6s1.2-1.4 1.2-3.4c0-2.2.6-3.6 1.6-4 2.8-1.1 3.4-.7 3.4 2.4 0 2.3.5 3 1.9 3 3.8 0 5.1-1.1 5.1-4.6 0-3 .3-3.4 2.5-3.4h2.5zm4.4-24.2c.9.4 1.6 1.8 1.6 3.4 0 2.2.5 2.9 2.5 3.2 2.1.4 2.5.1 2.5-1.9 0-3.9 3.4-2.6 3.8 1.5.2 1.7.7 3.2 1.2 3.2s1.5.3 2.4.6c1.2.5 1.6 0 1.6-2 0-2.8.1-2.9 2.4-2 1.4.5 1.6 3.5 1.6 23V414l-3.7-.1c-2.1 0-7.2-.6-11.3-1.2l-7.5-1.2-.3-24.8c-.1-14.8.1-24.7.7-24.7.5 0 1.6.3 2.5.6m124.7 7.5c-1.1 1.1-24.4 9.9-26.3 9.9-2.3 0-3.5-2.7-2.1-4.9.6-.9 6.8-3.9 13.9-6.7l12.9-5.1 1.1 3.1c.6 1.7.8 3.4.5 3.7m-33.4 14.6c-.2.1-5.5-.2-11.8-.8-11.2-1.1-37.7-.6-48.6 1-2.9.4-5.3.6-5.3.3 0-.2 7.3-3.8 16.2-8.1l16.1-7.8 16.9 7.5c9.2 4.2 16.7 7.7 16.5 7.9M109.3 373c.5.4.7 1.8.5 3l-.3 2.1H67c-38.5-.1-42.6-.3-43.7-1.8-.7-.9-1.3-2.6-1.3-3.6 0-1.9.9-1.9 43.3-1.2 23.7.4 43.6 1.1 44 1.5m443.2 26c-1.4 1.4-2.5 3.7-2.5 5.1 0 2.4-1.6 4.9-3.2 4.9-.4 0-.8-1-.8-2.2 0-2.1-.1-2.1-3 .7-1.7 1.6-3 3.9-3 5.3 0 2.8-1.7 6.2-3 6.2-.6 0-1-.9-1-2s-.4-2-.8-2c-1.8 0-6.1 5.7-6.5 8.5-.2 1.6-.4-7.1-.3-19.4l.1-22.4 13-5.1 13-5.2.3 12.5c.3 12.1.2 12.5-2.3 15.1m55.5-26.3c0 1.7-1.4 1.8-17.5 1.5l-17.5-.4V396h-17v-25h26c24.1 0 26 .1 26 1.7m-478.2 4.4 15.2 3.4v6.2l-17-4.1-17-4v-2.9c0-2.3.4-2.8 1.8-2.5 1 .3 8.6 2 17 3.9m458.1.9c.5 1.6 1.3 3 1.6 3 .4 0 .4-1.4 0-3-.7-3.3.2-3.6 7.7-2.4 3.5.6 3.6.7 2.6 3.5-.9 2.6-1.4 2.9-5.5 2.9-6.2 0-13.7 4.2-16.8 9.4l-2.5 4.1v-9l.1-9 3.4 4c4.3 4.9 4.7 3.2.5-2-1.6-2.1-3-3.9-3-4.1s2.4-.4 5.4-.4c5.1 0 5.5.2 6.5 3m18.9 2c-1.1 4.2-1.8 4.6-4.9 3-1.8-1-1.8-1.3-.4-4 1.1-2.1 2.3-3 3.9-3 2.3 0 2.3.2 1.4 4m-496.6.5c2.2.9 2.9 4 1.4 6.1-1.2 1.5-4.9 1.7-43.2 1.5-23-.1-42.2-.5-42.6-.9-.3-.4-1-2.5-1.4-4.6l-.7-3.9 42.5.6c23.4.4 43.2.9 44 1.2m19.8 4.1c13.7 3.3 18 5 18 7.4 0 1.7-3.2 4.1-4.9 3.6-2-.6-30-6.6-30.7-6.6-.3 0 0-.9.7-2.1.6-1.2.9-3 .6-4s-.1-1.9.3-1.9c.5 0 7.7 1.6 16 3.6m388.5 1.8 8 1.1.3 17.7.2 17.6-3 2.2c-2.1 1.5-3 3-3 5 0 3.4-.9 6-2.1 6-.5 0-.9-1.2-.9-2.6v-2.6l-2.9 2.4c-2 1.5-3 3.2-3 5-.1 1.8-.6 2.8-1.6 2.8-.8 0-1.5-.5-1.5-1.1 0-.5-.4-.8-.9-.4-.5.3-12.8.7-27.3.9s-27.5.7-29 1.1l-2.8.7v-9.8c0-8.2.4-10.4 2-12.9 2.5-3.8 2.5-4.5 0-4.5-1.9 0-2-.7-2-13.4 0-15.4-1.4-13.7 13-15.5 16.9-2.1 40.3-2 56.5.3m-432.7 3.3 24.2.6V424H94v-30H55v30H37.9l-1.8-4.4c-1.6-3.5-6.6-18.4-9.6-28.4l-.6-2.2h17.9c9.8 0 28.7.3 42 .7m41.2 3.8c6.9 1.4 13.3 2.9 14.3 3.1 1.6.5 1.7 2.4 1.5 22.7 0 12.2-.4 20.3-.7 17.9-.5-3.3-1.3-4.7-3.6-6.2-4.1-2.7-4.5-2.5-4.5 1.5 0 3.3-.1 3.4-2 2.3-1.4-.9-2-2.4-2-5.1 0-3.1-.5-4-3.2-5.7-1.8-1.1-3.6-2-4-2-.5 0-.8 9.2-.8 20.5V463h-11v-36.6c0-34.3.1-36.5 1.8-36 .9.2 7.3 1.7 14.2 3.1m187.7 3.1c-.3 2-.8 3.8-.9 4-.2.1-2.6.6-5.3.9-5 .7-5 .7-6.8-3-.9-2-1.5-4.1-1.2-4.6.4-.5 3.8-.9 7.7-.9h7.1zm20.8-2.1c11.5 2 11.6 2.1 9.9 6.6l-1.5 3.5-6.2-1.3c-3.4-.7-8-1.3-10.2-1.3s-5.7-.3-7.7-.6c-3.6-.6-3.8-.8-3.8-4.5V393h5.4c2.9 0 9.3.7 14.1 1.5m-36.1 3.1c.9 2 1.5 3.8 1.4 4-.2.1-4.8 1.2-10.3 2.4s-10.9 2.4-12.1 2.7c-1.5.3-2.3-.2-3.2-2.2-.7-1.4-1.2-3-1.2-3.5 0-1.3 16.8-6.6 22.1-6.9.8-.1 2.3 1.5 3.3 3.5m-232.3 3.9c2.3 6.1 2.3 6.5.2 6.5-2 0-11.3-8.8-11.3-10.8 0-.9 1.3-1.2 4.6-1 4.5.3 4.6.4 6.5 5.3m14.3-2.8c-2 8.1-1.8 7.8-6.2 8.1-3.9.3-4.2.1-5.5-3.1-3.4-8.1-3.7-7.7 4.8-7.7H82zm11.6-.9c0 2.2-6.8 11.2-8.4 11.2-3.3-.1-3.8-1.6-2.5-7.4l1.2-5.6h4.9c4 0 4.8.3 4.8 1.8m480.8.4c2 2 1.4 4.7-1.1 5.3-1.2.3-5.4.5-9.2.3-5.8-.2-7-.6-7.3-2.1-.8-4 .4-4.7 8.6-4.7 4.7 0 8.3.5 9 1.2m-219.9.9c3.5 1.2 3.5 1.4 2 5.6-1 3-1.1 3-4.9 1.9-5.1-1.5-5.5-2-4-5.6 1.4-3.3 2.2-3.5 6.9-1.9M555 414.7l-.1 15.8-60.4 61-60.4 61-.1-21.1v-21l3.5-3.4 3.5-3.4v8.8l4-3.9c3.5-3.4 4-4.5 4-8.5.1-3.6.5-4.8 2.5-6.3l2.5-1.8v8.5l3.5-3.4c2.9-2.8 3.5-4.1 3.5-7.7 0-3.1.6-4.8 2.3-6.3l2.2-2.1.3 3.7.3 3.7 3.5-3.4c2.8-2.7 3.4-4 3.4-7.6 0-3.2.5-4.5 2-5.3 1.8-1 2-.8 2 2.7v3.7l3-2.9c2.4-2.3 3-3.7 3-7.1 0-3.3.5-4.7 2.3-5.9 2.1-1.5 2.2-1.5 2.5 1.6l.3 3.1 3-2.8c2.2-2.1 2.9-3.7 2.9-6.4 0-2.4.7-4.3 2-5.5 2-1.8 2-1.7 2 2v3.8l2.5-2.3c1.8-1.7 2.5-3.4 2.5-6s.7-4.3 2.5-6l2.5-2.3v6.6l2.5-2.3c1.6-1.5 2.5-3.4 2.5-5.5 0-1.9.8-3.9 2-5 2-1.8 2-1.7 2 1.5v3.3l2.4-2.3c1.7-1.5 2.6-3.6 2.8-6.3.3-4.6 2.8-6.5 2.8-2.1v2.7l2.5-2.3c1.6-1.5 2.5-3.4 2.5-5.3 0-2.9 2.4-6.7 4.2-6.7.4 0 .8 1.2.8 2.7v2.7l3-2.9c2.1-2 3-3.8 3-6 0-1.9.8-3.9 2-5 2-1.8 2-1.7 2 .9v2.7l3-2.3c2.2-1.6 3-3 3-5.2 0-2.4 2.3-6.6 3.7-6.6.1 0 .3 7.1.3 15.7M273.5 404l1.6 3h-94.9l1.1-3 1.1-3h89.5zM61 405.5l3.4 3.5-3.1 3.2c-1.7 1.8-3.5 4.2-4.1 5.3-.9 1.6-1.1.2-1.2-6.8 0-4.8.4-8.7.8-8.7s2.3 1.6 4.2 3.5m32 5.7v8.3l-2-3c-1.1-1.7-2.5-3.7-3.1-4.6-1-1.3-.7-2.3 1.6-5.3 1.5-2 2.9-3.6 3.1-3.6s.4 3.7.4 8.2m209 9v17.3l-10.3 1.7c-5.6 1-11.2 2-12.5 2.4l-2.2.6.2-16.7.3-16.8 4.5-1.4c2.5-.7 7.9-2 12-2.7 4.1-.8 7.6-1.5 7.8-1.5.1-.1.2 7.7.2 17.1m12-.3v16.9l-5.1.4c-2.8.1-5.3.1-5.5-.1-.7-.7-.4-32.7.3-33.4.3-.4 2.8-.7 5.5-.7h4.8zm24.8-14.9 5.2 1.2v34.1l-4.1-.7c-2.2-.4-6.8-.9-10.2-1.2s-8.1-.7-10.4-1l-4.3-.5v-34.2l9.3.6c5 .3 11.6 1 14.5 1.7M573 424v19h-17v-18.3c0-10.1.3-18.7.7-19 .3-.4 4.2-.7 8.5-.7h7.8zm-221.9-15.8 3.9 1.1v16.9c0 9.2-.3 16.8-.6 16.8s-2.5-.5-5-1.1l-4.4-1.1v-16.9c0-11.9.3-16.9 1.1-16.9.7 0 2.9.5 5 1.2m-75.3 3.5-.3 2.8h-96l-.3-2.8-.3-2.7h97.2zm148.2 3.7c0 2.7-.2 2.8-18 4.7-9.5 1-10.5.9-11.7-.7-.7-1-1.3-2.1-1.3-2.4 0-.5 19.5-3.1 29.3-3.9 1.2-.1 1.7.6 1.7 2.3m17.3-.3c5.3.7 9.7 1.5 9.7 1.8s-.7 1.4-1.4 2.4c-1.3 1.7-2.1 1.7-9.8.7-13.8-1.8-14.8-2.1-14.8-3.9 0-2.5 1.1-3.2 4-2.7 1.4.3 6.9 1.1 12.3 1.7m-165.5 3.1c.3 1.7-2.3 1.8-44.2 1.8H187v24.1c0 15.7-.3 23.8-1 23.4-.5-.3-1-2.4-1-4.5 0-3.2-.6-4.3-3-6l-3-2.1v-18.8c0-10.3.3-19.1.7-19.4.3-.4 22.1-.6 48.2-.5 44.4.3 47.6.4 47.9 2m148 32.3-.3 10.5-14.3-11.7-14.3-11.8.3-7.5.3-7.5 14-1.5 14-1.5.3 10.2c.1 5.7.1 15 0 20.8m15.7-29.2 8 1.2v40.6c0 38.6-.1 40.8-1.9 42.8-2.7 3-3.6 2.6-3.6-1.6v-3.7l-4 3.9-4 3.9v-16.7c0-16.1.1-16.8 2.1-17.5 1.9-.7 1.5-1.3-3.8-5.7-3.2-2.7-6.1-5.4-6.5-6-.4-.5-.8-10.3-.8-21.8V420l3.3.1c1.7 0 6.8.6 11.2 1.2m-163.7 7.4.3 7.3h-3.6c-1.9 0-3.5.4-3.5 1 0 .5 1.6 1 3.6 1 2.8 0 3.5.3 3.2 1.7-.2 1.2-1.5 1.9-3.8 2.2l-3.5.4 3.5.6 3.5.6.3 8.2c.2 6.5 0 8.2-1 7.8-.8-.3-2.9 1-4.8 3-3.2 3.3-3.8 3.5-9.6 3.5h-6.2l-5.1-5.9c-2.8-3.2-5.1-6.1-5.1-6.5 0-.3 5.4-.6 12-.6h12v-10c0-9.9 0-10.1-3.3-13.6-5.9-6.5-16.2-5.6-20.7 1.9-1.6 2.5-2 5-2 11.9v8.6l-7 5.1c-3.8 2.8-7.2 5.1-7.5 5.1s-.5-6.5-.5-14.4c0-13-.2-14.6-2.1-17-6.3-8.1-18.3-7.1-22.6 1.9-1.6 3.4-1.8 3.5-7.5 3.5H189v-15l43.3.2 43.2.3zm-149.3-3.1c2 1.3 2.5 2.5 2.5 5.5 0 3.3.5 4.1 3 5.4 3.9 2 4 2 4-1.5 0-3.3.3-3.5 3.1-2 1.4.8 1.9 2.1 1.9 5s.6 4.3 2.2 5.4c3.2 2.3 3.8 2 3.8-1.9 0-3.3.2-3.5 2-2.5 1.5.8 2 2.1 2 5 0 3.1.5 4.3 2.9 5.9 3.9 2.8 4.1 2.7 4.1-1.4 0-1.9.4-3.5.8-3.5 1.8 0 3.2 2.6 3.2 6.2 0 3.2.5 4.1 3.3 5.8l3.2 2 .3-4c.3-3.6.5-3.9 2.3-2.7 1.4.9 1.9 2.3 1.9 5.3 0 3.3.5 4.5 2.5 5.8 3.3 2.2 3.5 2.1 3.5-1.9 0-3.8.2-4 3.1-2.5 1.4.8 1.9 2.1 1.9 5.4 0 4.4 0 4.3 6.3 7.4.4.2.7-1.2.7-3.2 0-3.9.2-4.1 3.1-2.6 1.4.8 1.9 2.1 1.9 5.5 0 3.9.4 4.6 3.4 6.4 1.8 1.2 3.6 2.1 4 2.1.3 0 .6-1.8.6-4v-4l2.5 1.6c2 1.3 2.5 2.4 2.5 5.9 0 3.9.4 4.5 3.5 6.4l3.5 2V484c0-4.4.5-4.7 3.8-2.4 1.7 1.2 2.2 2.5 2.2 5.9 0 4 .3 4.5 4.3 6.8l4.2 2.5.3-3.9c.3-4.3.8-4.6 4-2.3 1.7 1.2 2.2 2.5 2.2 5.9 0 3.8.4 4.6 3.4 6.4 4.4 2.8 4.6 2.7 4.6-1.4 0-4 .7-4.2 5.2-1.5l3.3 2 .5-9.3.5-9.2h15l.3 35.7c.1 19.7 0 35.8-.3 35.8-.8 0-142.7-89-144.7-90.8-1.6-1.3-1.8-3.7-1.8-20.9 0-10.6.2-19.3.5-19.3s1.7.7 3 1.6m-71 3.4c0 2.4-.3 2.5-7.3 2.8s-7.2.2-8.2-2.3c-.6-1.5-1-2.8-1-3.1s3.7-.4 8.3-.2c8 .3 8.2.4 8.2 2.8m54.5 0v3h-8.5c-8.9 0-10.5-.8-9.1-4.5.4-1.2 2.4-1.5 9.1-1.5h8.5zm439.3 20.5c-3.2 3.6-6 6.5-6.3 6.5-.4 0-1.2-1.6-1.9-3.5l-1.2-3.6 7.3-7.8 7.3-7.8.3 4.9c.3 4.6.1 5.1-5.5 11.3M55 446c0 6.6-.2 12-.5 12-.6 0-7.1-11.7-9.9-18.3L42 434h13zm54.8 2.2-.3 14.3h-15l-.3-14.3-.3-14.2h16.2zM201 440c0 1.8-.7 2-6 2s-6-.2-6-2 .7-2 6-2 6 .2 6 2m142.9 1.9c11.5 2.9 11.7 3.1 7.7 6.3l-3.4 2.7-9.8-2.1c-17-3.6-43.2-2.8-59.1 1.8-2.1.6-2.3.3-2.3-2.9 0-4 1.1-4.6 13.7-7.2 10.5-2.2 42.1-1.3 53.2 1.4m70.8 13.9 20.2 16.7-6.9.3-6.9.3-19.3-15.7c-10.6-8.6-20-16.3-20.8-17.1-1.2-1.1-.3-1.3 6-1.3h7.5zm-24.6 5.2 25 21h-4.5c-4.4 0-5-.4-25.2-17.9l-20.6-17.9-22.5 17.9c-21.7 17.3-22.6 17.9-27 17.9-2.6 0-4.4-.2-4.2-.4 1.3-1.2 53.4-41.6 53.7-41.6.1 0 11.5 9.4 25.3 21m112.3-19.1c2.6.5 2.8.7 1.3 2-1 .7-1.7 2.1-1.7 3 0 1.6-1.7 1.7-18.2 1.7-10.1-.1-22 .2-26.5.7l-8.3.7v-3c0-1.7.6-3.3 1.3-3.5 5-1.9 45-3.2 52.1-1.6m7.8 2.3c-.7.7-1.2.8-1.2.2 0-1.4 1.2-2.6 1.9-1.9.2.3-.1 1.1-.7 1.7M201 460c0 14.6-.2 16.9-1.5 16.4-1-.4-1.5-2-1.5-5 0-4-.4-4.6-3.7-6.8l-3.8-2.3-.6 4.1c-.3 2.3-.7-2-.7-9.7L189 443h12zm381.9-14.3c0 .5-1.9 4.2-4.2 8.3-3.8 6.7-4.6 7.5-8 8.2-2.5.5-6.3.3-11-.7-3.9-.8-7.2-1.3-7.5-1.1-.9 1 6.4 3.8 12.1 4.7 3.4.6 6.3 1.2 6.5 1.4s-1.2 3-3.2 6.3l-3.7 5.9-5.2-2.6c-4.8-2.4-6.2-2.6-18-2.5h-12.8l12.3-12.4 12.3-12.4 7.3.5c8.1.5 8.3-.3.7-2.6l-5-1.6h13.8c7.5-.1 13.7.2 13.6.6M322.3 448c9.5.9 22.3 3.2 23.3 4.2.2.2-8.2 7-18.6 15.1L308.1 482h-14.6l-8.3-10.2c-8-9.8-8.3-10.4-8-14.7l.3-4.5 7-1.8c3.9-1 11.1-2.2 16-2.7 5-.5 9.5-.9 10-1 .6 0 5.9.4 11.8.9m61.2 16.5c22.1 19 20.7 17.5 16.3 17.5-3.1 0-5.5-1.6-19.3-13.1-15.7-13-15.7-13-17.9-11.1-1.1 1-8.1 6.9-15.3 13.1l-13.2 11.2-5.6-.3-5.6-.3 20.8-16.6c17.2-13.7 21.1-16.4 22.3-15.4.8.6 8.7 7.4 17.5 15m104.3-14.8c7.6.6 8.1.7 6.7 2.3-.8.9-1.5 2.5-1.5 3.6 0 1.8-1 1.9-22 1.9h-22v-2.8c0-1.5.6-3 1.3-3.3 1.1-.4 16.3-1.7 26.7-2.3 1.4 0 6.2.2 10.8.6m14.2 1.7c0 1.6-1.8 3.1-2.7 2.2-.8-.8.5-3.6 1.7-3.6.5 0 1 .6 1 1.4m39 5.6c0 1.4-11.8 14-13.2 14-.4 0-1.5-1.4-2.4-3.1l-1.6-3.2 7.4-7.4 7.3-7.4 1.2 2.8c.7 1.5 1.2 3.5 1.3 4.3m-159.5 14.7 14 11.8.3 12.2.3 12.3H385v9h-8v-9h-11v9h-8v-9h-11v9h-9v-4.5c0-3.3-.4-4.5-1.5-4.5-1.3 0-1.5-2-1.5-12.4v-12.3l14.8-12.6c10.9-9.3 15.1-12.3 16.2-11.6.8.5 7.8 6.1 15.5 12.6M483.8 459h3.5l-2.6 2c-1.4 1.1-2.7 2.9-2.9 4-.3 1.9-1.3 2-16.5 2.5l-16.3.4V464c0-3.6.2-3.9 3.3-4.5 5.1-.8 15.7-1.3 22.1-.9 3.2.2 7.5.4 9.4.4m8.6.9c.3.4-.3 1.6-1.4 2.6-1.9 1.8-2 1.7-2-.8 0-2.6 2.2-3.8 3.4-1.8M282 481.8c-5.1.1-9.5.1-9.7-.2-.6-.5 1.6-17.6 2.4-18.9.2-.4 4.1 3.6 8.5 9l8 9.8zm-163-13.6-1.9 4.3-27 .3-27.1.2-2.5-4c-1.4-2.2-2.5-4.2-2.5-4.5s14.2-.5 31.5-.5h31.4zm14.2 3.4 6.8 4.4-2.1 3.5c-1.2 1.9-2.4 3.5-2.7 3.5-1 0-16.2-9.8-16.2-10.4 0-.3.7-2.1 1.7-4 1.9-4 1.3-4.1 12.5 3m391.8-1.5c1.3 3.1 1.3 3.1-6.3 10.7l-7.6 7.5-1.7-3.7-1.8-3.7 7.4-7.4c4-4.1 7.7-7.2 8-7 .4.3 1.3 1.9 2 3.6M253 473c0 5.3-.3 6.1-2.7 7.7l-2.6 1.7 2.4.6c2.2.5 2.4 1.1 2.7 8.3.2 4.2-.1 7.7-.5 7.7s-2.3-.9-4.1-2-3.5-2-3.7-2c-.3 0-.5 1.8-.5 4v4.1l-3-1.6c-2.7-1.4-3-2-3-6.3 0-5.1 0-5.1-8.2-9-.5-.2-.8 1.5-.8 3.7 0 4-.1 4-2.5 2.9-2.5-1.1-2.5-1.3-2.5-13.5V467h29zm10.9-5.3c-.1.5-2.3 2.8-5 5.2l-4.9 4.4V467h5c2.8 0 5 .3 4.9.7m210.3 2.9c-1.2.8-2.2 2.6-2.2 4 0 2.3-.3 2.4-6.9 2.4-3.7 0-8.9.3-11.5.6l-4.6.7v-4.1c0-2.3.5-4.3 1.3-4.5.6-.3 6.8-.6 13.7-.6 11.5-.1 12.3 0 10.2 1.5m7.8-.3c0 1.4-2 3.7-3.2 3.7-.4 0-.8-1.1-.8-2.5 0-1.8.5-2.5 2-2.5 1.1 0 2 .6 2 1.3m-357.1 8.4c6.5 4.1 7.1 4.7 5.4 5.7-2.1 1.3-20.5 1.5-24.3.3-1.4-.4-.7.2 1.5 1.4 5 2.8 16.1 3.6 24.5 2l5.9-1.2 12.1 7.7c8 5 11.8 8 11.1 8.7-.5.5-5 .8-10.6.5-9.1-.4-9.4-.3-6.8 1.2 2 1.1 5.9 1.5 14 1.6h11.2l19.5 12.4c10.7 6.8 19.4 12.6 19.2 12.7-.2.2-1.5-.1-3-.7-4-1.5-17.2-1.2-24.6.6-7 1.7-17.7 2.3-22.5 1.2-2.2-.5-1.8-.2 1.5 1.4 5.1 2.4 16.6 2.9 23.5 1 7.6-2.1 20.5-3.2 25.1-2.2 2.4.6 7.8 3.2 12 5.9l7.6 4.8-7.3 1.8c-8.2 2-19.9 2.3-24.1.6-4.7-1.8-3.1-.1 1.9 2.1 5.8 2.6 16.6 2.7 27.2.4l7.3-1.6 11.4 7.2c6.3 3.9 11.4 7.5 11.4 7.9 0 2-15.4 2.2-21.8.3-.9-.3.1.5 2.3 1.7 3.1 1.7 5.7 2.2 11.5 2.3 4.1 0 48.6-.1 98.7-.2 69.1-.1 91.8-.5 93.2-1.4 1.5-.9 3.1-.9 6.8-.1 6.1 1.4 6.8.8 1.5-1.5-2.3-.9-4.2-1.9-4.2-2.2s5.3-5.8 11.8-12.2l11.7-11.7 12-1.2c10.3-1 12.7-1 17.3.3 2.8.9 5.2 1.4 5.2 1.1 0-.2-2.1-1.4-4.7-2.6-3.9-1.7-6.7-2.1-14.9-2.2-8.8 0-10.1-.2-9.4-1.5.5-.8 5.5-6.1 11.2-11.6l10.3-10.2 8.1-1.2c6.2-.9 9.5-.9 13.4-.1 6.5 1.4 7.4.9 2-1.3-2.5-1-7-1.6-11.6-1.6h-7.5l12.6-13.3 12.7-13.4 15.6-1.2c13-1.1 16.4-1.1 19.6 0 4.8 1.7 5.2 2.6 2.2 6.3-2.1 2.5-3.5 3-14.2 4.8-9.6 1.5-13.5 1.7-19.9 1-4.4-.5-8.2-.8-8.4-.6s1.8 1.3 4.5 2.5c4.3 2 5.9 2.1 16.4 1.6 6.3-.3 12.6-.9 14-1.3 2.2-.7 2.1-.3-1.8 4.7-2.4 3-7.2 8.8-10.8 13l-6.4 7.5-11.6 1.8c-12.5 2-19.9 2.2-25.3.6-5.3-1.5-5-.3.4 2.1 4.4 2 6.1 2.1 17.8 1.6l12.9-.5-4.4 4.5c-9.9 10.2-20.9 18.8-26.1 20.5-5.9 1.9-22 2.4-26.3.8-4.8-1.9-3.9-.1 1.2 2.1 3.5 1.6 7 2.2 13 2.3l8.1.1-5.1 3.8c-7.4 5.5-23.9 15.8-34 21.1-7.6 4-9.4 4.6-14.9 4.6-3.4 0-7.9-.5-10-1.1-2.2-.6-4.1-.8-4.4-.5-.9.8 7.8 4.5 10.7 4.7 6.6.2-28.4 13-50.5 18.5-25.8 6.3-38.6 7.8-69.5 7.8-21.6.1-30.1-.3-39.5-1.7-36.4-5.5-65.6-14.6-95.5-29.8-14.3-7.2-28.2-15.6-24-14.3 4.3 1.2 15.2.8 23.5-1 4.4-1 11.5-1.8 15.7-1.9 5.5-.1 7.2-.4 6-1.1-2.7-1.6-18.4-2-24.3-.6-19 4.1-25.1 3.4-35.4-4.3l-7-5.1 5.5-1.3c9.1-2.1 22-3.6 26.4-3l4.1.5-3-1.3c-6.2-2.8-13.1-2.9-25.5-.5l-11.9 2.3-6.9-5.7c-7.7-6.2-9.8-8.4-8.9-9.2.3-.3 4.6-.6 9.6-.7 8.2-.2 8.8-.3 5.8-1.4-1.7-.6-7.3-1.2-12.3-1.2l-9.2-.1L99 519c-5.7-6.1-10.1-11.2-9.9-11.4.6-.4 17.4-3.4 23.5-4.1 2.9-.4 6.9-.2 9 .4 2 .6 3.3.7 2.8.2-3.6-3.3-19.5-4.1-29.9-1.6-3.3.8-6.7 1.4-7.5 1.5-.9 0-4.8-4.2-8.8-9.4-8.1-10.7-8.2-10.5 3.8-10.6 5.5-.1 6.1-.3 4-1.2-1.4-.5-6-1.3-10.3-1.7-7.4-.6-7.9-.8-9.8-3.9l-2.1-3.2h53.8zm307.9 12.5.2 16.8h-9v4.5c0 2.5-.4 4.5-1 4.5s-1-7.9-1-21.6v-21.5l5.3.3 5.2.3zM151 482.8c3 1.9 5.7 3.7 5.9 3.9.8.6-2.8 7.3-4 7.3-1.4 0-15.9-9.1-15.9-9.9 0-.3.9-2.1 2-3.9 2.3-3.7 1.9-3.8 12 2.6m314-4.2c0 .3-1.1 1.5-2.5 2.6s-2.5 2.6-2.5 3.4c0 1-1.3 1.4-4.5 1.4h-5.2c-.5 0-.9-1.5-1.1-3.4l-.3-3.5 6.3-.4c3.5-.2 7.1-.4 8.1-.5.9-.1 1.7.1 1.7.4m6.5.5c.7 1.1-2.2 4.9-3.7 4.9-1 0-1.1-4.4-.1-5.3 1-1 3.1-.8 3.8.4m32.6 16.8c-8.9 10-8.6 9.9-11 5.4l-2-3.8 7.7-7.8 7.7-7.7 1.8 3.6 1.8 3.5zM288 518.5V554h14c9.2 0 14 .4 14 1.1 0 .5-.5 3-1.1 5.5l-1.1 4.4h-23.4c-12.9 0-23.4-.2-23.4-.5s.9-2.3 2-4.5c1.9-3.7 2-5.9 2-39.8 0-19.7.3-36.2.7-36.5.3-.4 4.2-.7 8.5-.7h7.8zm46-23V508h-3.5c-3.5 0-3.5 0-3.5 4.5v4.5h-8v-4.5c0-4.1-.2-4.5-2.5-4.5H314v-25h20zm79 0V508h-9v4.5c0 4.5 0 4.5-3.5 4.5H397v-34h16zm47-5.8c0 2.6-2.5 6.3-4.2 6.3-.4 0-.8-1.7-.8-3.7v-3.6l-2.3 2.1c-3 2.8-3.7 2.8-3.7-.2 0-2.2.5-2.5 4.8-2.9 2.6-.2 5-.4 5.5-.5.4-.1.7 1 .7 2.5m-291.5 4.1c3.9 2.5 7.2 4.6 7.4 4.8s-2.4 4.4-4.6 7.3c-.1.2-2-.7-4-2.1-2.1-1.3-5.7-3.7-8-5.1-2.4-1.5-4.3-3.1-4.3-3.5s.9-2.2 2-4c1.3-2.1 2.5-3 3.3-2.6.6.4 4.4 2.8 8.2 5.2m323.4 9 2 3.9-8.4 8.3-8.3 8.3-2-3.9-2.1-3.9 8.2-8.3c4.5-4.5 8.3-8.2 8.4-8.2s1.1 1.7 2.2 3.8M187 505.4c4.7 2.9 8.6 5.9 8.7 6.7.2.8-.8 2.7-2.1 4.2l-2.3 2.9-9.1-5.9c-5.1-3.2-9.2-6.2-9.2-6.6 0-1.2 4-6.7 4.8-6.7.4 0 4.5 2.4 9.2 5.4m110 8.6v4h12v-8h8v8h11v-8h9v8h11v-8h8v8h11v-8h9v8h10v-8h9v8h10v-8h8v8h12v-8h8v43H290v-43h3.5c3.4 0 3.5.1 3.5 4m-87.9 5.2 9.7 6.2-2.5 3.8c-1.4 2.1-2.7 3.8-2.9 3.8-.3 0-17.4-10.7-20.2-12.6-.6-.4 4.3-7.4 5.2-7.4.5 0 5.3 2.8 10.7 6.2m264.8 1.6 1.9 3.7-9.4 9.8-9.4 9.7-2.1-4.1-2.1-4.2 9.3-9.3c5.2-5.2 9.5-9.4 9.6-9.4s1.1 1.7 2.2 3.8M244 541.6c0 .9-4.5 7.4-5.2 7.4-.5 0-20.6-12.5-23.7-14.7-.2-.1.8-2.1 2.2-4.2l2.7-4 12 7.5c6.6 4.2 12 7.8 12 8m210.1-.5 2.1 4.2-9.3 9.3c-5.1 5.1-9.5 9.1-9.8 8.8-.4-.3-1.1-2.4-1.7-4.7l-1.1-4.2 8.6-8.8c4.7-4.8 8.7-8.7 8.8-8.7s1.2 1.9 2.4 4.1m-196.3 8.6c5.9 3.6 10.9 6.8 11.1 6.9.2.2-3.1 6.4-4.5 8.3-.6.7-23.4-14-23.4-15.1 0-1.5 4-6.8 5.1-6.8.5 0 5.8 3 11.7 6.7m89.8 8c-1.4 7.9-.1 7.3-16.7 7.3s-16 .4-13.8-7.3l1-3.7h30.1zm29.4 1.8v5.5h-29.2l.7-4.8c.4-2.6.9-5 1.2-5.5.2-.4 6.5-.7 13.9-.7H377zm29.9-.5c.6 2.8 1.1 5.3 1.1 5.5 0 .3-6.5.5-14.4.5-14.1 0-14.4 0-15-2.3-.8-3-.8-7.2.1-8 .3-.4 6.6-.7 13.9-.7h13.2zm26-3.2c.5.9 1.2 3.4 1.6 5.5l.7 3.7h-12.5c-6.9 0-12.8-.3-13-.8-.3-.4-.8-2.8-1.2-5.5l-.7-4.7h12.1c10.5 0 12.2.2 13 1.8"/><path d="M316.8 13.8c-3.2.2-5.8.7-5.8 1.2 0 .6.9 1 2 1 2.4 0 2.7 1.4 3.4 15 .7 16-1.5 20-11.1 20-3 0-5-.7-7-2.4l-2.8-2.4V31.3c0-14.6 0-14.8 2.3-15.1 1.2-.2 2.2-.8 2.2-1.4s-1.2-.8-3.1-.4c-1.7.3-5.1.6-7.5.6s-4.4.4-4.4 1c0 .5.9 1 2 1 2.5 0 2.8 1.5 3.3 17.5.2 7.8.9 13.9 1.6 15.3 2.9 5.3 15.1 7 21.2 2.9 5.5-3.7 6-5.6 5.7-21.5-.3-14.6-.2-15.1 3.7-16.5 2.1-.8-.2-1.2-5.7-.9m11.7 1.2c.3.5 1.2 1 2 1 2.2 0 2.3 2 .9 14-2.1 19-2.5 21.1-4 21.7-3.1 1.2-1 2 8 3.2 7.5 1.1 10.2 1.1 13.2.1 9.5-3 14.5-10.4 14.6-21.4.1-12.2-5-16.5-21.7-18.5-11.2-1.4-13.8-1.4-13-.1m21.4 4.8c4.8 2.4 7.3 6.2 7.9 12 .6 6.4-1.9 14-5.9 17.8-2.7 2.6-3.7 2.9-9.9 2.9-3.8 0-7.1-.3-7.5-.7-.6-.5 1.6-22.1 3.1-30.6.6-3 .9-3.2 4.8-3.2 2.2 0 5.6.8 7.5 1.8M267 18c-5.2 1-11 1.9-12.9 1.9-3.3.1-3.4.1-2.7 3.8.3 2.1.6 4.4.6 5 0 .7.5 1.3 1 1.3.6 0 1-1.6 1-3.5 0-3.6-.1-3.5 7.2-5 2.1-.4 2.2 0 4.8 15.8 2.6 16.6 2.6 19.7 0 19.7-1.1 0-2 .4-2 1 0 1.3.9 1.3 8.7-.1 3.5-.6 6.3-1.6 6.3-2.1 0-.6-.9-.8-2.1-.5-2.8.7-3.4-1.2-5.9-16.9-2.8-18.2-2.8-18.1 1.8-18.7 4.1-.5 6.2.6 6.2 3.4 0 1.1.5 1.9 1 1.9 1.1 0 1.4-4.9.4-7.4-.7-1.9-.9-1.9-13.4.4m103.6 1.8c-.3.5.3 1.2 1.4 1.5 1.4.3 2 1.4 2 3.1 0 2.9-5.6 30.2-6.5 31.7-.4.5-1.5.9-2.6.9-4.3 0-1.5 1.8 5.1 3.2 7.2 1.5 8.6 1.1 4.9-1.4l-2.2-1.4L376 42c3.7-17.7 4.2-19 7-18.3 1.1.3 2 .1 2-.4 0-.6-2.6-1.6-5.7-2.3-3.2-.7-6.3-1.5-6.9-1.7-.7-.2-1.5 0-1.8.5m-139.8 6.3c-6.3 3.3-8.3 9.4-5.4 16.4 2.1 5.1 5.2 6.1 13.2 4.6 7.8-1.4 10.8-.2 11.9 5 1.3 5.7-4.4 10.9-11.8 10.9-3.4 0-4-.4-5-3-1.6-4.2-3.1-3.7-2.2.7.9 5.2 1.1 5.3 6.1 5.3 9.6 0 16.4-6.4 16.4-15.3 0-3.8-.5-5.3-2.6-7.4-2.4-2.4-2.9-2.5-9.2-1.8-11.2 1.3-12.6.7-13.8-5.2-.5-2.7-.1-3.7 2.4-6.3 2.4-2.4 3.9-3 7.1-3 3.4 0 4.3.4 5.3 2.5 1.4 3.1 3.2 3.3 2.4.2-.3-1.2-.6-3-.6-4 0-2.5-9.2-2.3-14.2.4"/><path d="M391.3 30.9c-10.2 7.4-12.1 24.8-3.7 32.8 9.4 8.8 25.2 5.4 31.5-6.9 7.6-14.9-.9-28.7-17.7-28.8-5.2 0-6.7.4-10.1 2.9m17.6 1.1c5.3 2.6 7.5 7.6 6.8 15-1.3 14.5-12.2 23.3-21.5 17.4-6.6-4.2-8.2-15.5-3.7-25.1 4-8.7 10.6-11.3 18.4-7.3m22.1 6.6c0 .4.7 1.2 1.7 1.9 1.4 1.1 1 2.5-4.6 14.6-8 17.3-8.7 18.2-11.7 17.6-4.4-.8-2.5 1.3 4.1 4.5 3.5 1.8 6.8 2.8 7.2 2.4.4-.5.4-1-.2-1.3-4-1.5-3.9-1.9 3.2-16.9 3.8-8.1 7.6-15.2 8.4-15.7 2.1-1.3 6.9 1.1 8.8 4.4 3.2 5.8-3.7 13.2-10.1 11-4.5-1.6-4.7-1.5-3.8 2.6.5 2.1 1.4 7.9 2 12.9 1.2 8.8 1.3 9.1 4.3 10.2 3.6 1.4 4.2 1.1 2.8-1.5-.6-1-1.7-6.2-2.4-11.6l-1.4-9.7h3.4c6.3 0 11.2-4.2 11.3-9.5 0-4.8-2.3-7-12.6-11.9-10-4.8-10.4-5-10.4-4m-246.5 6.3c-10.8 2.6-15.6 12.3-10.4 20.7 2.8 4.7 5.9 5.2 14 2.4 7.9-2.7 10.5-2.1 12.5 2.6 1.8 4.4.5 7.8-4.5 11.1-4.6 3.1-8.4 3-11.1-.5l-2.1-2.7.6 2.5c1.7 6.6 1.7 7 .2 7-.9 0-9-5-18.1-11.2-9.1-6.1-16.8-10.9-17.1-10.6-.4.3 1.3 9.5 3.8 20.4l4.4 19.8-2 2.8c-1.2 1.5-2.4 2.8-2.8 2.8s-5.5-5.9-11.5-13.1c-11.4-14-11.6-14.4-6.2-17.7 2.5-1.5 2.8-1.5 4.8.3 4.2 3.8 3.3.4-1.6-6.3-.4-.5-23.4 19-23.4 19.8 0 1.1 6 6.4 6.6 5.8.3-.4-.1-1.7-1-3-1.5-2.3-1.4-2.6 1.9-5.8 2.2-2.1 3.8-3 4.4-2.4 2.4 2.4 18.5 22.2 19.9 24.2 1.3 2 1.3 2.4-.2 4.1-1 1.1-1.4 2.1-.9 2.4s4-2.4 7.8-6c3.9-3.5 8.2-7.2 9.8-8.1 3.4-2 3.5-3.6.2-2.8-2.7.7-3.5-.4-4.9-7-.6-2.9-.3-3.3 5.2-7.2l5.9-4.1 4.2 3c4.4 3.3 4.7 3.9 2.9 5.7-.6.6-.9 1.5-.5 1.8.4.4 3.4-1.2 6.7-3.5 3.4-2.4 7.6-4.7 9.4-5.2 10.9-3 16.6-13.5 11.6-21.7-3.2-5.2-5.9-5.9-12.8-3.3-7.8 2.8-10.7 2.7-12.8-.4-3.8-5.8-.2-12.2 7.3-13.2 3.5-.5 4.2-.2 4.8 1.6.3 1.1 1.2 2.1 2 2.1 1.1 0 1-.7-.2-4-1.7-4.2-1.9-4.3-6.8-3.1m-25 33.9c2.8 2 5.4 3.9 5.8 4.3.5.4-1.2 2.1-3.8 3.9-2.5 1.7-4.9 3-5.1 2.7-.4-.4-4.3-14.2-4.4-15.5 0-.5 2 .8 7.5 4.6m50.6-27.4c-1.5 1.8-.3 4.6 1.9 4.6 1 0 2.1-.7 2.4-1.6.6-1.6-.9-4.4-2.4-4.4-.4 0-1.3.6-1.9 1.4M464 55.8c0 .6.7 1.5 1.6 2 2 1.1 1.3 2.5-8.1 16.1-7.1 10.2-8.1 12.6-7 16.8.9 3.9 7.8 10 12.6 11.3 5.7 1.6 10.2-.8 15.9-8.7 2.5-3.3 6.1-8.3 8.1-11 2.8-3.8 4-4.8 6.2-4.6 1.5.1 2.7-.1 2.7-.5-.1-1.2-10-7.5-10.8-6.8-.4.4.1 1.2 1.1 1.7 2.6 1.5 2.2 3-3.9 12-6.4 9.4-10.8 14.5-13.3 15.1-3.2.8-7.9-1.3-11.1-4.8-4.3-5-3.8-7 5.6-20.5 7.4-10.7 8.9-12 11.1-9.8.7.7 1.3.7 1.7.1.3-.6-1.7-2.7-4.5-4.7-5.9-4.2-7.9-5.1-7.9-3.7m36.7 24.8c-.4.4-.2 1.3.4 2 1.9 2.3.2 4.6-11.5 16.3-10 9.9-11.7 11.3-13.1 10.1-.8-.7-1.8-1-2.2-.6-.9.9 6.8 8.6 8.6 8.6 1.1 0 1.1-.4-.4-2-1.7-1.8-1.6-2.1 1.3-5.7 1.7-2.1 6.3-7 10.2-10.8l7.1-7-1.5 4c-5.1 13.3-10.5 28.9-10.2 29.3.3.2 7.5-2.6 16.1-6.3s15.8-6.5 16-6.3-4.1 4.9-9.5 10.6c-9 9.4-10.1 10.2-12 9.2-1.2-.6-2.4-1-2.6-.7-.8.7 10 10.6 10.9 10 .5-.3.1-1.3-.8-2.3-1.6-1.8-1.1-2.5 10-14.4 6.4-6.9 12.2-12.6 12.9-12.6s1.7.5 2.4 1.2c.6.6 1.4.9 1.8.6.3-.4-1.2-2.2-3.3-4.1-3.7-3.5-3.8-3.5-7.3-2-12.9 5.7-26.5 11.1-26.9 10.8-.2-.3 2.2-7.5 5.4-16.1l5.8-15.6-3.5-3.4c-1.9-1.9-3.7-3.2-4.1-2.8m-395.1 23c-2.6 3-4.6 5.8-4.2 6.1.3.3 1.4-.1 2.4-1 1.7-1.5 2.5-.9 14 10.1 11.4 10.9 13.7 14.1 11.2 15.7-.6.4-.8 1-.5 1.5s2.8-1.6 5.7-4.6c5.1-5.4 5.9-7.8 1.9-5.2-2 1.2-3 .4-14.3-11-11.2-11.1-12.2-12.4-11-14.2 3.2-5.2.4-3.8-5.2 2.6M94 116.5c-9.6 7.1-10.5 18.8-2 23.9 4.6 2.7 7.2 2 13.4-3.4 6.1-5.4 7.9-5.9 11.4-3.4 5 3.5 4.6 10.1-.9 15-3.4 3-5.4 3.5-7.8 1.7-1.2-.8-2.5-1.2-2.8-.9-.7.7 4.6 6.6 5.9 6.6 1.4 0 8.9-7.3 10.4-10.1 3.1-6 .9-15-4.5-18.2-4.5-2.6-6.5-2.1-12.7 3.3-3.4 3-6.7 5-8.1 5-2.9 0-7.3-4.2-7.3-7 0-3.3 2.5-7.3 5.7-9.2 2.7-1.6 3.2-1.6 5.2-.2 3.5 2.5 3.8.7.5-2.6l-3-3zM523.5 136c-.8 2.6.6 4.3 3.1 3.8 1.3-.2 1.9-1.2 1.9-2.8 0-3.4-4-4.1-5-1m27.1 1.6c.7 2.9 1.6 2.1-15.9 13.6-6.7 4.3-12.4 7.5-13.3 7.1-2.1-.8-1.8.4 2.2 6.8 4.7 7.7 7.8 9.9 14.4 9.9 4.4 0 5.6-.4 8.2-3 2.7-2.7 3-3.6 2.5-7.1s-.3-4 1.1-3.3c4.5 1.9 8.1 1.6 10.6-1 3.9-3.8 3.3-6.8-3.1-16.7-5.8-9-7.9-11-6.7-6.3m6.8 11.3c1.5 2.6 1.6 3.7.7 5.7-2.4 5.4-9.4 5.6-13.1.4l-2.1-2.9 5.3-3.6c2.9-1.9 5.7-3.4 6.3-3.2.5.2 1.8 1.8 2.9 3.6m-14 8.5c2.7 5.8 1.7 9.5-3.4 12.1-4.6 2.4-7.8 1.9-11.1-1.6-1.6-1.8-2.8-3.6-2.7-4 .4-1.2 13-9.8 14.4-9.8.7-.1 1.9 1.4 2.8 3.3M74 144.3c-1.3.7-5 5.4-8.2 10.6-5.7 9.1-6.7 12.2-3 8.8 1.7-1.6 2.6-1.2 15.8 7.6 12.6 8.3 13.9 9.5 13.7 11.9-.1 1.6.1 2.8.5 2.8 1.1-.1 8.3-12.2 7.7-12.9-.4-.3-1.2.2-1.9 1.2-.7.9-1.8 1.7-2.4 1.7-1.9 0-28.2-17.9-28.2-19.3s2.8-5.8 4.4-6.9c2-1.4 6.3-.8 8.8 1.2 3.2 2.4 3.9 5.9 2.1 10.1-.7 1.7-1.2 3.4-1 3.5.2.2 6 .1 12.9-.3 12.3-.6 12.6-.6 14.1-3.3 1.7-2.8 1.2-4.7-.7-3.1-.6.5-5.7 1.1-11.3 1.3l-10.3.5v-4.4c0-5.4-2-9.5-5.5-11.1-3.2-1.5-4.4-1.5-7.5.1m495.2 22.4c.3 2.3-.5 3-6.7 6.4-3.8 2.1-10.8 5.5-15.4 7.6-8 3.6-8.4 3.6-9.7 1.8-2.9-3.9-2.6-.3.4 6 3.5 7.1 4.5 8 4 3.7-.3-2.6.4-3.1 13.7-9.9 7.7-4 14.8-7.2 15.7-7.3 2 0 4.8 4.8 4.8 8.4 0 3.2-4.3 6.6-8.6 6.6-2.5 0-3.9-.8-6.2-3.5l-2.9-3.6-6.1 11-6.1 11 5.1 12.8c2.8 7 5.2 12.9 5.3 13.1.1.1 4.3 1.4 9.4 2.9 5 1.4 9.1 2.9 9.1 3.4 0 .4-3.1 3.6-7 7-3.8 3.4-6.7 6.6-6.4 7.1.9 1.4 4.6 21.9 5.1 28 .3 3.2.9 5.8 1.4 5.8s.9-.6.9-1.3c.1-3.5 1.6-3.8 7.3-1.7l5.7 2.1V297h-5.4c-3 0-5.8-.5-6.1-1-2.3-3.7-2.6 2-.9 18.7l.5 5.3h5c2.7 0 4.9-.5 4.9-1 0-.6-1.3-1-3-1-3.7 0-4.7-1.8-5.1-9.5l-.4-6 7.5-.6c4.1-.4 7.9-.3 8.3.1.5.4.7 2.9.5 5.6-.3 4.2-.6 4.9-2.5 5.2-1.3.2-2.3.8-2.3 1.4 0 .7 1.4.8 3.8.4 2-.3 4.9-.6 6.5-.6 1.5 0 2.7-.5 2.7-1 0-.6-1.1-1-2.4-1-2.1 0-2.4-.6-2.9-5.2-.4-2.8-.5-5.3-.4-5.4.1-.2 3.6-.4 7.7-.6l7.5-.3.3 6.8.3 6.7-3 .6c-4.2.9-2.9 2.4 2.1 2.4h4l-.7-14.3c-.7-15.7-1.5-20.2-2.5-15.2-.4 1.9-1.1 2.9-2.1 2.7-.8-.2-8.9-3.4-18.1-7.3-14.6-6.2-16.8-7.4-17.8-10-.9-2-1-3.3-.3-4 1-1 28.4-5.9 32.6-5.9 1 0 2.1.9 2.4 2s1 2 1.5 2c.6 0 .8-.6.5-1.4s-.9-4.2-1.3-7.5c-.6-5.9-2.4-8.6-2.4-3.7 0 3.1-.6 3.3-18.5 6.1-13.8 2.2-15.1 2.2-16.2.7-2.8-3.6-1.5-6.5 6.5-14.5 4.2-4.2 8.4-7.7 9.2-7.7 2.9.1 16.2 5.9 17.4 7.6 1.8 2.4 2.7.3 1.3-2.6-.9-1.8-3.1-3-8.7-4.8-4.1-1.2-7.6-2.5-7.8-2.7s2.4-3.1 5.7-6.4l6.2-6-1.6-3.7c-.8-2-1.5-3.8-1.5-4s-.4-.4-1-.4c-.5 0-1 1.2-1 2.6 0 1.9-1.9 4.5-6.4 9.2l-6.5 6.7-9.9-3.3c-7.3-2.4-10.4-3.9-11.6-5.7-3.3-5-3.4-4.9 25.1-15.7 5.4-2 7.3-1.8 7.3.8 0 .8.5 1.4 1 1.4 1.4 0 1.3-.6-1.4-8-2.2-6.1-4.4-8-3.8-3.3.3 1.9-1.4 2.8-15.3 8.2-8.6 3.4-16.1 5.9-16.6 5.5-.6-.3-1.4-1.7-2-3.1-.8-2.1-.1-3.9 4.3-11.8l5.2-9.3 3.5 2.4c4.9 3.3 9.5 3.2 13.2-.5 1.6-1.6 2.9-4 2.9-5.3 0-2.6-9.1-22.7-10.3-22.8-.4 0-.6 1.2-.5 2.7m26.9 123.5c5.4 2.3 9.7 4.3 9.5 4.6-.3.3-19.8 2-20.2 1.8-.1-.1-.5-2.5-.9-5.4-.5-3.7-.4-5.2.5-5.2.7 0 5.6 1.9 11.1 4.2M55.6 172.9c-.3.4-3 6.3-6 13-5 11.1-5.8 14.5-2.6 10.6.7-.8 1.9-1.5 2.8-1.5.8 0 8 3.1 16 7 11.4 5.5 14.3 7.3 13.8 8.6-.3.9-.3 2 0 2.6.5.8 10.3-18 11.8-22.9.4-1.4-.4-2.3-3.6-4.1-4.9-2.6-6.4-1.9-2.5 1.2 2.7 2.2 2.7 2.3 1.3 6.2-2.4 6.8-3.9 9.4-5.3 9.4-2.1 0-13.3-5.9-13.3-7.1 0-.5.9-2.8 2.1-5 1.8-3.7 2.3-4.1 5-3.5 4.7.9 3.4-.8-2.8-3.6-5.7-2.6-8.4-2.8-5-.4.9.7 1.7 1.9 1.7 2.5 0 1.9-4 9.1-5 9.1-2.1 0-12-5.5-12-6.7 0-1.7 2-6.3 4.3-9.5 1.6-2.4 2.1-2.6 3.9-1.7 3.9 2.1 3.7-.6-.2-2.9-2.1-1.2-4.1-1.8-4.4-1.3M42.7 201c-2.5 6-3.5 10-2.6 10.6.6.3 1.3-.3 1.6-1.5 1-3.8 2.7-2.9 19.6 10.7 3.7 3 6.7 5.6 6.7 5.8s-7 .4-15.6.4H36.8l.6-2.6c.5-1.8.3-2.5-.5-2.2-1.4.5-4.7 9.1-4.8 12.3 0 2 0 2 1.4.1 1.4-1.8 3.4-2.1 21.2-2.8 19-.7 24-1.7 20.3-3.8-5.3-2.9-30.6-24.3-31.1-26.2-.5-1.8-.8-1.9-1.2-.8m-12.1 40.5c-.5 1.6-1.2 4.6-1.7 6.5-1.2 4.5-1.1 6 .1 6 .6 0 1-.7 1-1.5 0-2.7 2.3-2.7 15.1 0 18.5 3.9 19.9 4.4 19.9 7.2 0 4.8 1.7 2 2.9-4.8 1.3-6.7 1-10.3-.4-6-.9 2.8-3.9 2.7-21-1.2-13.8-3.2-14-3.2-14.6-6.2l-.6-3zm-4.1 20.2c-.3 2.1-.8 5-1 6.5-.6 3.5.8 3.6 2.4.2 1-2.4 1.5-2.6 5.4-2 2.3.3 8.8 1.1 14.4 1.7 5.6.7 10 1.6 9.7 2-.3.5-8.1 5.1-17.4 10.4-16.8 9.5-16.8 9.6-17.5 13.6-.4 2.6-.3 4.5.4 5.2.8.8 1.1.5 1.1-1.1 0-1.3.6-2.5 1.4-2.8 2.1-.8 31.6 3.4 33.2 4.7.8.7 1.3 1.8 1 2.6-.3.7-.1 1.3.4 1.3.8 0 1.3-2.1 2.4-9.8.4-2.7-1.4-2.9-2.1-.2-.4 1.4-1.4 2-3.2 2-3.1 0-26.4-3-26.9-3.4-.1-.2 7.1-4.5 16-9.6 18-10.2 19.8-11.5 19.8-14.2 0-1.5-.8-1.8-4.2-1.8-5.7-.1-31.2-3.5-32.8-4.5-.6-.4-1-1.6-.7-2.6.3-1.1.1-1.9-.3-1.9-.5 0-1.2 1.7-1.5 3.7M22 311.5c0 3.7.4 6.5 1 6.5s1-.9 1-2c0-1 .9-2.4 1.9-3 2.1-1.1 25.9-1.4 28.6-.4 4.4 1.7 6.1 13.2 2.6 17.5-1.7 2.1-3.1 2.4-15.3 3.3-7.4.5-14.2.6-15.1.3-1-.4-1.7-1.6-1.7-2.7s-.4-2-1-2-1 3.2-1 7.5c0 4.1.4 7.5.9 7.5s1.1-1 1.3-2.3c.3-2 1-2.3 7.3-2.8 3.9-.4 10.6-.7 15-.8 9.2-.1 11.9-1.4 14.1-6.7 3.1-7.4.9-16.8-4.8-20.5-3.1-1.9-4.3-2-16.5-1.5-14.4.6-16.3.3-16.3-2.5 0-1-.4-1.9-1-1.9s-1 2.8-1 6.5m273.3-141.8c-2 .7-1.8 12.3.2 12.3 1.2 0 1.5-1.4 1.5-6.5 0-3.6-.1-6.5-.2-6.4-.2 0-.9.3-1.5.6m8.7 5.3c0 4.7.3 6 1.5 6s1.5-1.3 1.5-6-.3-6-1.5-6-1.5 1.3-1.5 6m10 .5c0 3.7.4 6.5 1 6.5s1-2.8 1-6.5-.4-6.5-1-6.5-1 2.8-1 6.5m-20 16.9c0 2.1.6 3.6 1.5 4 1.2.4 1.5-.3 1.5-3.4 0-2.9-.4-4-1.5-4-1 0-1.5 1-1.5 3.4m10 1.1c0 2.4.5 3.5 1.5 3.5s1.5-1.1 1.5-3.5-.5-3.5-1.5-3.5-1.5 1.1-1.5 3.5m-125.8 13.1c.2 2.8.8 4.9 1.6 5.2 1 .3 1.2-.8 1-4.4-.2-2.8-.8-4.9-1.6-5.2-1-.3-1.2.8-1 4.4M178 219c0 3.8.4 5 1.5 5s1.5-1.2 1.5-4.4c0-3-.5-4.6-1.5-5-1.2-.4-1.5.4-1.5 4.4m264 2c0 2.9.4 4 1.5 4s1.5-1.1 1.5-4-.4-4-1.5-4-1.5 1.1-1.5 4m6 .9c0 2.5.5 4.1 1.5 4.5 1.2.4 1.5-.4 1.5-3.9 0-3.3-.4-4.5-1.5-4.5s-1.5 1.1-1.5 3.9m-270.1 59c-6.2.7-6.6.9-16.8 11.4-7 7.3-11.5 13.6-12.5 17.7-.4 1.4.5.4 1.8-2.1 1.4-2.5 4.6-6.6 7.1-9 2.6-2.4 6.8-6.5 9.3-9 5.4-5.3 9.9-7.9 13.9-7.9 1.5 0 3.5-.5 4.3-1 1.7-1.1 2.2-1.1-7.1-.1m23.4 21.8c.9.2 2.3.2 3 0 .6-.3-.1-.5-1.8-.5-1.6 0-2.2.2-1.2.5m-6.8 1.7c-1.6.7-4.7 2.8-6.9 4.5-2.1 1.7-4.5 3.1-5.2 3.1-1.4 0-7.4 7.5-7.4 9.3 0 .5-2 2.8-4.5 5.1-3.8 3.6-4.5 4.8-4.5 7.9 0 2.1-.9 7-2 10.9-2.5 8.9-2.5 12.3-.1 4.8 1-3 2.3-6.4 2.9-7.5s1.4-3.8 1.7-5.9c.4-2.6 1.8-5.1 4-7.3 1.8-1.8 4.3-5.4 5.5-7.9s3.4-5.2 4.9-6.1c1.4-.9 4.4-3.3 6.6-5.4 2.2-2 5.4-4.4 7-5.2 3.7-2 2.2-2.1-2-.3m-44 18.5c-5.5 2.7-11.3 6.3-13 8.1-1.6 1.7-5 4.2-7.5 5.5-6.8 3.5-12.8 9.1-15.6 14.6-3 6-2.4 6.4 1.2.6 3.6-5.6 7.9-9.2 13.6-11.3 3.1-1.2 6.5-3.7 9.8-7.1 2.8-2.9 5.6-5.3 6.3-5.3s3.2-1.4 5.5-3.1 5.9-3.9 8-4.9c2-1.1 3.3-1.9 2.7-1.9-.5 0-5.5 2.2-11 4.8m23.1 43.4c-.3 1.3-2.6 4.5-5 7.1-3 3.2-5.1 6.6-6.3 10.3-1.1 3.5-3.4 7.4-6.5 11-4.7 5.3-8.8 12-8.8 14.4 0 .6 3-2.6 6.8-7.1 9.3-11.3 11.2-14 11.2-16.2 0-2.4 4.3-11 6.4-12.7 1.6-1.3 4.1-7.9 3.3-8.7-.2-.3-.7.6-1.1 1.9m249.2-83.8c2.9.8 8.2 3.1 11.9 5 3.6 1.9 7.2 3.5 8 3.5s3.2-.9 5.5-2.1c2.5-1.3 5.3-1.9 7.4-1.7 2 .2 3 0 2.5-.5s-3.3-.6-6.3-.3c-10.2 1.3-13.2 1-19.8-1.9-3.5-1.5-8.2-2.9-10.5-3.1-3.8-.4-3.7-.3 1.3 1.1m.2 10.5c.8.5 2 1 2.5 1 .6 0 .3-.5-.5-1s-1.9-1-2.5-1c-.5 0-.3.5.5 1m2 7.6c5.1 1.7 9.8 4.1 12 6.1 2.8 2.5 9.9 4.5 8.6 2.5-.4-.7-1.3-1.2-2-1.2s-2.5-.9-4-2.1c-2.9-2.3-12.1-5.9-14.6-5.8-1.3 0-1.3.1 0 .5m-72-9.1c0 2.5.5 4.5 1 4.5.6 0 1-2 1-4.5s-.4-4.5-1-4.5c-.5 0-1 2-1 4.5m6 .5c0 2.9.4 4 1.5 4s1.5-1.1 1.5-4-.4-4-1.5-4-1.5 1.1-1.5 4m-6 16.5c0 2.5.5 4.5 1 4.5.6 0 1-2 1-4.5s-.4-4.5-1-4.5c-.5 0-1 2-1 4.5m6 .5c0 2.9.4 4 1.5 4s1.5-1.1 1.5-4-.4-4-1.5-4-1.5 1.1-1.5 4m-128-14.5c0 3.3.4 4.5 1.5 4.5s1.5-1.2 1.5-4.5-.4-4.5-1.5-4.5-1.5 1.2-1.5 4.5m7-.5c0 2.9.4 4 1.5 4s1.5-1.1 1.5-4-.4-4-1.5-4-1.5 1.1-1.5 4m-7 17.5c0 3.3.4 4.5 1.5 4.5s1.5-1.2 1.5-4.5-.4-4.5-1.5-4.5-1.5 1.2-1.5 4.5m7-.5c0 2.9.4 4 1.5 4s1.5-1.1 1.5-4-.4-4-1.5-4-1.5 1.1-1.5 4m158 15.1c0 5.2 2.4 4.8 2.8-.4.2-2.8-.1-3.7-1.2-3.7-1.2 0-1.6 1.1-1.6 4.1m-9.8-2.2c-.8.5-1.2 2.2-1 4.4.2 2.7.6 3.4 1.6 2.8.8-.5 1.2-2.2 1-4.4-.2-2.7-.6-3.4-1.6-2.8m24.8 1c0 2.3.5 4.1 1 4.1.6 0 1-1.5 1-3.4s-.4-3.8-1-4.1c-.6-.4-1 1-1 3.4m6.2 1.3c.4 5.5 2.8 6.4 2.8 1 0-2.7-.5-4.2-1.6-4.6-1.2-.5-1.5.2-1.2 3.6m6 1c.4 5.5 2.8 6.4 2.8 1 0-2.7-.5-4.2-1.6-4.6-1.2-.5-1.5.2-1.2 3.6m-114.5 10.4c-1.3 1.3-.8 9.4.6 9.4 2.7 0 3.8-1.8 3.5-5.6-.3-3.7-2.3-5.6-4.1-3.8m9.3 3.9c0 2.5.2 4.5.4 4.5s1.1.3 2 .6c1.3.5 1.6-.2 1.6-4.5 0-4.4-.3-5.1-2-5.1s-2 .7-2 4.5m-116.8 5.7c2.5 3.3 2.7 3.3 11.9 3.6l9.4.2 2.3-3.5 2.2-3.5h-28.3zm41.7-1.5c3 5.1 3.4 5.3 12.8 5.3h9.1l2.6-3.5 2.7-3.5H256c-13.1 0-14 .1-13.1 1.7M189 363v7h10v-14h-10zm42 0v7h9v-14h-9zm41 0v7h9v-14h-9zm-82 13c-1.1 1.1-2 2.9-2 4s.9 2.9 2 4 2.9 2 4 2 2.9-.9 4-2 2-2.9 2-4-.9-2.9-2-4-2.9-2-4-2-2.9.9-4 2m41.5-.6c-4 2.9-1.4 10.6 3.7 10.6 2.4 0 5.8-3.5 5.8-6s-3.4-6-5.8-6c-1 0-2.7.6-3.7 1.4m173.5 2.8c-1.8 1.9-2 3.5-2 13.1v11l4.6-.7c2.6-.3 5.8-.6 7.1-.6h2.5l-.4-10.4c-.2-8.5-.6-10.8-2.2-12.5-2.5-2.7-7-2.7-9.6.1m28-.2c-1.7 1.7-2 3.3-2 11.9v9.8l4.6.7c7.9 1 7.4 1.7 7.4-9.7 0-7.7-.4-10.8-1.6-12.5-1.9-2.8-5.7-2.9-8.4-.2m43.6 22.6c-1 .9-1.6 3.3-1.6 6.1v4.5l3.1-.6c1.7-.3 4.2-.6 5.5-.6 2 0 2.4-.5 2.4-3.3 0-6.4-5.5-10-9.4-6.1m16.4.3c-.5 1.1-1 3.6-1 5.5 0 2.8.4 3.6 1.8 3.6.9 0 3.4.3 5.5.6l3.7.7v-4.6c0-2.8-.6-5.2-1.6-6.1-2.2-2.3-7.1-2-8.4.3m-33.3.9c-1 1.1-1.7 3.6-1.7 6 0 4.6.9 5 7.9 3.6 2.8-.6 3.1-1 3.1-4.5 0-6.2-5.5-9.3-9.3-5.1m51.1-.7c-1.3.7-1.8 2.3-1.8 5.3 0 4.1.2 4.4 3.1 5 6.5 1.3 6.9 1.1 6.9-4.4 0-3.8-.4-5.2-1.9-6-2.4-1.2-4.1-1.2-6.3.1m-17.1 22.7c-1 1.1-1.7 3.6-1.7 6v4.2h11v-4c0-6.7-5.6-10.3-9.3-6.2m-17.5.4c-.7.7-1.2 3.1-1.2 5.5v4.3h11v-3.8c0-2.5-.7-4.5-1.8-5.5-2.2-2-6.3-2.2-8-.5m-190.1-9c-2.8 3.8-3.1 4.9-3.1 11.6v7.4l6.3-.7c3.4-.4 6.5-.9 7-1.2.4-.2.7-3.7.6-7.6-.1-7.1-.1-7.3-3.9-10.5l-3.8-3.2zm40.1-2.4c-3.1 2.6-3.2 2.9-3.2 10.3v7.5l7 1 7 1v-7.4c0-6.8-.3-7.8-3.1-11.3-1.7-2.1-3.4-3.9-3.7-3.9-.4 0-2.2 1.3-4 2.8M228 437c0 .6 2.8 1 6.5 1s6.5-.4 6.5-1-2.8-1-6.5-1-6.5.4-6.5 1m2.7 5.7c1.8.2 5 .2 7 0 2.1-.2.7-.4-3.2-.4-3.8 0-5.5.2-3.8.4m131 29.1c-1 1-1.7 2.8-1.7 4 0 5.5 8.1 7.1 10.9 2.1 1.3-2.4 1.3-2.9-.2-5.3-2.1-3.1-6.6-3.5-9-.8M149.5 516c-2.7.4-6.8 1.2-9 1.9-5 1.4-18.5 1.4-22 .1-1.4-.5-2.4-.6-2.1-.1 1.2 1.9 10.2 4.1 16.7 4.1 3.7 0 10.1-.7 14.1-1.6s11-1.6 15.6-1.7c7.3-.2 8-.3 5.5-1.3-4-1.6-13-2.3-18.8-1.4m64.5 61.1c-8 1.8-16.1 2-21.6.4-1-.3-.1.4 2.1 1.4 6.2 3.1 13.2 3.6 22.7 1.6 4.6-1 12.8-2 18.3-2.3 9.5-.5 9.8-.6 6.5-1.8-5.1-1.8-18.2-1.5-28 .7m79.5 1.9c-9.2 2.1-15.6 2.4-20.4 1s-5.1-.4-.5 1.5c6.3 2.6 14 2.9 23.4 1 4.7-1 12.6-2.1 17.5-2.4 8.9-.7 9-.7 5-1.9-5.5-1.6-15.5-1.3-25 .8m77.5 1.1c-8 1.9-17 2-22.5.4-1.1-.3-.2.4 2 1.4 6.3 3.1 13.4 3.6 23.8 1.6 5.1-1 13.3-2.1 18.2-2.4 8.9-.7 9-.7 5-1.9-5.7-1.7-16.6-1.3-26.5.9m-109.5 12.5c-5.3 1.5-18.3 2.1-22.5 1.1-1.4-.4-.6.2 1.8 1.4 5.5 2.6 14.8 2.7 26.2.4 4.7-1 12-1.8 16.3-1.9 7.2-.1 7.5-.2 4.5-1.3-4.5-1.6-20.2-1.4-26.3.3m78 2.5c-7.7 1.9-17.4 2.1-23 .5-1.1-.4 0 .3 2.4 1.5 6.3 3 13.3 3.4 23.6 1.3 5.2-1.1 13.2-1.9 18.8-1.9 9.4 0 9.7-.1 6.5-1.4-5.4-2.3-19.1-2.3-28.3 0M305 532.5c0 5.8.2 6.5 2 6.5s2-.7 2-6.5-.2-6.5-2-6.5-2 .7-2 6.5m16 0c0 5.8.2 6.5 2 6.5s2-.7 2-6.5-.2-6.5-2-6.5-2 .7-2 6.5m77 0c0 6.3.1 6.5 2.5 6.5s2.5-.2 2.5-6.5-.1-6.5-2.5-6.5-2.5.2-2.5 6.5m16 0c0 6.3.1 6.5 2.5 6.5s2.5-.2 2.5-6.5-.1-6.5-2.5-6.5-2.5.2-2.5 6.5"/></svg>